<?xml version="1.0" encoding="utf-8"?>
<!-- Generator: Adobe Illustrator 28.3.0, SVG Export Plug-In . SVG Version: 6.00 Build 0)  -->
<svg version="1.1" id="Layer_1" xmlns="http://www.w3.org/2000/svg" xmlns:xlink="http://www.w3.org/1999/xlink" x="0px" y="0px"
	 viewBox="0 0 440.7 144" style="enable-background:new 0 0 440.7 144;" xml:space="preserve">
<style type="text/css">
	.st0{fill:#FFFFFF;}
</style>
<g>
	<path class="st0" d="M401.46,115.27c-1.4,0-2.37-0.97-2.37-2.37V43.36h-23.62c-1.4,0-2.37-0.97-2.37-2.37v-9.59
		c0-1.4,0.97-2.37,2.37-2.37h62.86c1.4,0,2.37,0.97,2.37,2.37v9.59c0,1.4-0.97,2.37-2.37,2.37h-23.61v69.54
		c0,1.4-0.97,2.37-2.37,2.37H401.46z M220.58,80.55l-12.4-35.58l-12.51,35.58H220.58z M248.07,112.46c0.54,1.4-0.32,2.81-1.83,2.81
		h-11.21c-1.62,0-2.59-0.75-3.13-2.27l-6.36-18.33h-34.82L184.35,113c-0.54,1.51-1.51,2.27-3.12,2.27h-10.56
		c-1.4,0-2.37-1.4-1.83-2.81l29.22-81.29c0.54-1.51,1.51-2.15,3.12-2.15h14.45c1.62,0,2.69,0.64,3.23,2.15L248.07,112.46
		 M331.81,103.62c6.9,0,11.53-3.34,15.31-9.05l-17.46-18.76c-6.69,3.78-11,7.55-11,15.1C318.66,98.35,324.69,103.62,331.81,103.62
		 M336.66,40.44c-5.6,0-8.84,3.56-8.84,8.3c0,3.67,1.94,6.9,6.36,11.64c7.65-4.42,10.89-7.11,10.89-11.86
		C345.07,44.11,342.27,40.44,336.66,40.44 M384.43,112.25c1.4,1.51,0.54,3.02-1.19,3.02h-13.69c-1.83,0-2.81-0.43-3.99-1.84
		l-8.19-9.05c-5.5,7.33-13.16,12.83-25.88,12.83c-15.74,0-28.14-9.49-28.14-25.77c0-12.51,6.69-19.19,16.82-24.8
		c-4.96-5.72-7.22-11.75-7.22-17.03c0-13.37,9.38-22.54,23.5-22.54c14.45,0,23.29,8.52,23.29,21.13c0,10.78-7.76,16.81-15.96,21.35
		l12.08,13.05l6.79-11.86c0.86-1.4,1.83-1.94,3.56-1.94h10.46c1.73,0,2.7,1.19,1.62,3.02l-12.08,20.7L384.43,112.25 M276.84,115.27
		c1.4,0,2.37-0.97,2.37-2.37V43.36h23.61c1.4,0,2.37-0.97,2.37-2.37v-9.59c0-1.4-0.97-2.37-2.37-2.37h-62.86
		c-1.4,0-2.37,0.97-2.37,2.37v9.59c0,1.4,0.97,2.37,2.37,2.37h23.61v69.54c0,1.4,0.97,2.37,2.37,2.37H276.84z M27.85,128.87
		C40.06,138.32,55.38,144,72,144c18.19,0,34.77-6.76,47.43-17.85c0.15-0.13,0.08-0.23-0.07-0.13c-5.68,3.79-21.87,12.08-47.36,12.08
		c-22.15,0-36.15-4.94-44.06-9.36C27.79,128.66,27.74,128.77,27.85,128.87 M76.89,132.55c17.72,0,37.19-4.83,48.83-14.4
		c3.19-2.6,6.22-6.07,8.94-10.74c1.57-2.68,3.09-5.87,4.34-9c0.06-0.15-0.04-0.23-0.15-0.06c-10.83,15.94-42.19,25.89-74.57,25.89
		c-22.89,0-47.51-7.32-57.15-21.3c-0.1-0.13-0.19-0.07-0.13,0.08C15.98,122.11,43.23,132.55,76.89,132.55 M57.53,100.87
		c-36.85,0-54.23-17.17-57.38-28.89C0.11,71.81,0,71.85,0,72c0,3.94,0.4,9.04,1.08,12.41c0.32,1.64,1.66,4.23,3.62,6.28
		c8.92,9.3,31.17,22.34,69.7,22.34c52.49,0,64.49-17.49,66.94-23.24C143.09,85.68,144,78.24,144,72c0-1.51-0.04-2.72-0.1-3.91
		c0-0.19-0.11-0.21-0.15-0.02C141.13,82.15,96.28,100.87,57.53,100.87 M6.94,41.11C4.83,45.3,2.49,52.38,1.79,56.04
		c-0.3,1.57-0.17,2.32,0.38,3.49c4.42,9.38,26.76,24.38,78.87,24.38c31.79,0,56.49-7.81,60.49-22.07c0.74-2.62,0.77-5.4-0.17-9.13
		c-1.06-4.17-3.04-9.04-4.72-12.45c-0.06-0.11-0.15-0.1-0.13,0.04C137.13,58.98,85,71.04,58.7,71.04
		c-28.49,0-52.26-11.36-52.26-25.7c0-1.38,0.28-2.75,0.64-4.19C7.11,41.02,7,41,6.94,41.11 M119.55,18.15
		c0.3,0.47,0.45,0.98,0.45,1.66c0,8-24.47,22.15-63.43,22.15c-28.62,0-33.98-10.62-33.98-17.38c0-2.41,0.92-4.89,2.96-7.39
		c0.11-0.15,0.02-0.21-0.11-0.1c-3.72,3.15-7.13,6.7-10.13,10.53c-1.43,1.81-2.32,3.41-2.32,4.38c0,14,35.09,24.15,67.91,24.15
		c34.96,0,50.57-11.42,50.57-21.45c0-3.59-1.4-5.68-4.96-9.74c-2.32-2.64-4.51-4.79-6.83-6.91
		C119.55,17.96,119.47,18.04,119.55,18.15 M108.83,10.15C98.04,3.68,85.51,0,72,0C58.4,0,45.49,3.81,34.66,10.45
		c-3.25,2-5.08,3.6-5.08,5.66c0,6.08,14.19,12.6,39.36,12.6c24.91,0,44.23-7.15,44.23-14.04C113.17,13.04,111.74,11.89,108.83,10.15
		"/>
</g>
</svg>
