<?xml version="1.0" encoding="utf-8"?>
<!-- Generator: Adobe Illustrator 24.1.2, SVG Export Plug-In . SVG Version: 6.00 Build 0)  -->
<svg version="1.1" id="Layer_1" xmlns="http://www.w3.org/2000/svg" xmlnsXlink="http://www.w3.org/1999/xlink" x="0px" y="0px"
	 viewBox="0 0 2500 2500" style="enable-background:new 0 0 2500 2500;" xmlSpace="preserve">
<style type="text/css">
	.st0{fill-rule:evenodd;clip-rule:evenodd;fill:#FFFFFF;}
	.st1{fill-rule:evenodd;clip-rule:evenodd;}
	.st2{fill-rule:evenodd;clip-rule:evenodd;fill:#878787;}
</style>
<path class="st0" d="M2384.4,1288.3l-27.8-28.8c-3.9-3.1-8.5-5.2-13.4-6.2c0,0-16.5-1-30.9-1c13.4-15.4,22.6-31.9,30.9-52.5
	c8.8-22.6,13.3-46.7,13.4-71c0-19.5-3.1-39.1-9.3-56.6c1-8.2,24.7-161.5,24.7-162.5c0-4.1-2.1-7.2-5.1-11.3c0,0-13.4-17.5-36-39.1
	c-22.6-22.6-52.5-42.2-88.5-48.4c-30.9-5.1-61.7-4.1-90.5,4.1c-7.2-14.4-21.6-31.9-30.9-41.1c-10.3-9.3-16.5-13.4-27.8-20.6
	c-22.6-13.4-48.3-14.4-72-4.1l-1,1c-18.5,9.3-32.9,22.6-40.1,41.1c6.2-33.9,11.3-62.7,11.3-63.8c0-5.1-2-10.3-5.1-13.4l-28.8-28.8
	c-9.2-8.2-17.5-6.2-17.5-6.2L1762.1,712c-6.2,1-11.3,6.2-14.4,12.3c0,0-15.4,68.9-20.6,92.6c-56.6-47.4-119.6-86.5-187.2-116.2
	c25.7-33.9,198.5-261.2,198.5-261.2c3.1-3.1,5.2-7.2,5.2-11.3c0-5.1-3.1-9.3-6.2-13.4l-23.7-23.7c-5.1-5.1-13.4-7.2-20.6-5.1
	c0,0-376.4,143-407.3,155.3c-12.3-23.7-122.4-290-124.4-292.1c-1-3.1-2.1-5.1-3.1-6.2l-24.7-24.7c-2.1-2.1-7.2-6.2-18.5-5.1
	c-7.2,1-11.3,6.2-13.4,13.4c0,0-116.2,378.5-132.7,436.1c-17.5,6.2-383.6,145-383.6,145c-7.2,2.1-13.4,7.2-14.4,15.4
	c0,6.2,4.1,12.3,7.2,15.4c0,0,83.3,54.5,107,69.9c-49.4,59.7-91.5,126.5-121.4,199.5c-7.2,15.4-13.4,31.9-18.5,46.3
	c-26.7,11.3-56.6,22.6-56.6,22.6c-92.6,38.1-173.8,95.7-235.5,167.6c-77.1,88.5-123.4,198.5-137.8,322.9
	c-4.1,26.7-5.1,51.4-5.1,75.1c0,84.3,20.6,165.6,57.6,222.2c43.2,63.8,100.8,104.9,176.9,120.3c67.9,13.4,137.8,19.5,325-65.8
	c22.6-10.3,44.2-20.6,65.8-29.8l7.2,7.2c141.9,149.1,332.2,230.4,532.8,230.4c157.4,0,307.5-49.4,436.1-145
	c120.3-88.4,211.9-210.8,265.3-352.8c5.1,2,17.5,5.1,17.5,5.1c8.3,2,16.5-1,21.6-8.2l10.3-19.5c149.2-254,280.8-342.5,281.8-342.5
	l73-46.3c5.1-4.1,8.2-8.2,8.2-14.4C2390.5,1297.5,2387.4,1291.4,2384.4,1288.3L2384.4,1288.3z"/>
<path class="st1" d="M1250.9,688.7c-386.7,0-703.5,330.1-703.5,733.3c0,405.2,316.8,734.4,703.5,734.4
	c389.8,0,706.6-329.1,706.6-734.4C1957.5,1018.8,1640.7,688.7,1250.9,688.7L1250.9,688.7z"/>
<path class="st2" d="M1250.9,2119.3c369.2,0,669.6-312.7,669.6-697.3c0-382.6-300.3-696.3-669.6-696.3v33.9
	c351.8,0,637.7,297.2,637.7,662.4s-285.9,663.4-637.7,663.4L1250.9,2119.3L1250.9,2119.3z M583.4,1422
	c0,384.7,300.3,696.3,667.5,697.3v-33.9c-349.7,0-635.6-298.3-635.6-663.4s285.9-662.4,635.6-662.4v-33.9
	C883.7,725.7,583.4,1039.4,583.4,1422L583.4,1422z"/>
<path class="st0" d="M1664.4,1422c0,237.6-185.1,431-413.5,431v19.5c238.6,0,434-201.6,434-450.5c0-246.8-195.4-449.5-434-449.5V992
	C1479.3,992.1,1664.4,1185.4,1664.4,1422L1664.4,1422z M1250.9,1852.9c-227.3,0-412.4-193.4-412.4-431
	c0-236.6,185.1-429.9,412.4-429.9v-19.5c-236.6,0-430.9,202.6-430.9,449.5c0,248.9,194.4,450.5,430.9,450.5V1852.9L1250.9,1852.9z"
	/>
<path class="st2" d="M1664.4,1422c0,237.6-185.1,431-413.5,431c-227.3,0-412.4-193.4-412.4-431c0-236.6,185.1-429.9,412.4-429.9
	C1479.3,992.1,1664.4,1185.4,1664.4,1422L1664.4,1422z"/>
<path class="st1" d="M1390.8,1034.2h-277.7c-9.3,4.1-18.5,7.2-26.7,12.3h331.2C1408.3,1041.4,1399,1038.4,1390.8,1034.2
	L1390.8,1034.2z M1452.5,1065.1h-402.1c-5.1,4.1-11.3,7.2-18.5,12.3H1471C1465.9,1072.3,1459.7,1069.2,1452.5,1065.1z M1497.8,1096
	h-490.6c-5.1,4.1-9.3,8.2-13.4,12.3h517.4C1506,1104.2,1501.9,1100.1,1497.8,1096z M1530.7,1127.8H973.2c-4.1,4.1-8.2,7.2-11.3,11.3
	H1542L1530.7,1127.8z M1557.4,1158.7h-612c-3.1,4.1-5.1,7.2-9.3,11.3h630.5C1564.6,1165.9,1561.5,1162.8,1557.4,1158.7
	L1557.4,1158.7z M1580.1,1189.5H922.8c-2,3.1-5.1,8.2-7.2,11.3h672.7C1586.2,1197.8,1583.1,1192.6,1580.1,1189.5z M1599.6,1220.4
	H904.3c-1,3.1-3.1,7.2-6.2,10.3h706.6C1602.7,1227.6,1601.6,1223.5,1599.6,1220.4L1599.6,1220.4z M1614,1251.3H888.9
	c-1,3.1-2,7.2-4.1,11.3h734.4C1618.1,1258.5,1616.3,1254.7,1614,1251.3z M1626.3,1282.1H877.6c-1,3.1-3.1,7.2-4.1,11.3h757
	C1629.4,1289.3,1627.4,1285.2,1626.3,1282.1z M1635.6,1311.9H868.3c-1,5.1-3.1,8.2-3.1,12.3h773.4
	C1637.7,1320.2,1636.6,1317.1,1635.6,1311.9L1635.6,1311.9z M1642.8,1343.8H861.1c-1,4.1-1,7.2-2.1,12.3h785.8
	C1643.8,1351,1643.8,1347.9,1642.8,1343.8z M1648,1374.7H857c0,4.1-1,8.2-1,12.3h792V1374.7L1648,1374.7z M1649,1405.5H855
	c-1,4.1-1,8.2-1,12.3h796C1649,1413.8,1649,1409.7,1649,1405.5L1649,1405.5z M1649,1437.4H854c1,3.1,1,7.2,1,11.3h794V1437.4
	L1649,1437.4z M1648,1468.3H857c0,3.1,1,8.2,1,11.3h787.8C1646.9,1476.5,1646.9,1471.4,1648,1468.3L1648,1468.3z M1642.8,1499.1
	H861.1c1,4.1,1,8.2,2.1,11.3h777.6C1640.7,1507.4,1641.8,1503.2,1642.8,1499.1L1642.8,1499.1z M1635.6,1531H867.3
	c1,3.1,3.1,7.2,4.1,11.3h762.1C1633.6,1538.5,1634.3,1534.7,1635.6,1531z M1626.3,1560.8H877.6c1,4.1,3.1,8.2,3.1,12.3h742.6
	C1624.3,1569.1,1625.3,1565,1626.3,1560.8L1626.3,1560.8z M1615,1591.7H888.9c2.1,5.1,4.1,8.2,6.2,12.3h714.8
	C1610.9,1599.9,1613,1596.8,1615,1591.7z M1599.6,1623.6H903.3c3.1,4.1,5.1,7.2,7.2,11.3h682.9
	C1595.5,1630.8,1597.5,1627.7,1599.6,1623.6z M1581.1,1654.4H922.8c3.1,4.1,4.1,8.2,7.2,12.3h642.8
	C1576,1662.7,1579,1658.5,1581.1,1654.4L1581.1,1654.4z M1558.4,1685.3h-614c4.1,4.1,6.2,8.2,10.3,11.3h595.5
	C1552.3,1693.5,1556.4,1689.4,1558.4,1685.3z M1531.7,1717.2H971.2c5.1,3.1,8.2,7.2,12.3,10.3h536.9
	C1524.5,1724.4,1527.6,1720.3,1531.7,1717.2z M1497.8,1748h-491.6c4.1,3.1,9.3,8.2,14.4,11.3h462.8
	C1488.5,1756.3,1493.7,1751.1,1497.8,1748z M1454.6,1778.9h-406.3c7.2,4.1,13.4,8.2,20.6,11.3H1435
	C1442.2,1787.1,1448.4,1783,1454.6,1778.9z M1392.9,1809.7H1110c11.3,4.1,22.6,8.2,33.9,11.3h216
	C1371.1,1817.9,1382.1,1814.1,1392.9,1809.7z"/>
<path class="st1" d="M1617.1,467.5c0,0-326,123.4-368.2,139.9c-17.5-41.1-124.5-292.1-124.5-292.1l-22.6,75.1
	c0,0-86.4,283.9-93.6,308.6c-24.7,9.3-346.6,131.6-346.6,131.6S893,954,925.9,971.5c-10.3,39.1-155.3,553.4-155.3,553.4l49.4,25.7
	c0,0,299.3-488.5,324-516.3c31.9,13.4,317.8,128.6,317.8,128.6s-112.1-307.5-122.4-333.2C1356.9,806.9,1617.1,467.5,1617.1,467.5
	L1617.1,467.5z"/>
<path class="st2" d="M1129.6,398.6l3.1,422.7l-101.8-101.8L1129.6,398.6L1129.6,398.6z M729.5,833.7l403.2-12.3L959.9,956.1
	L729.5,833.7L729.5,833.7z"/>
<path class="st2" d="M798.4,1531l334.3-709.7l2.1,176.9L798.4,1531z M1413.4,1110.4l-280.8-289l174.8,2L1413.4,1110.4L1413.4,1110.4
	z M1532.7,529.2l-400.1,292.1l100.8-179L1532.7,529.2L1532.7,529.2z"/>
<path class="st0" d="M2376.1,1300.6h-1v-1v-1h-1v-1l-28.8-27.8c0-1-2-2-3.1-2c0,0-38.1-2.1-62.7-4.1c19.6-15.4,39.1-38.1,50.4-67.9
	c8.2-23.7,12.3-45.3,12.3-66.8c0-19.5-3.1-38.1-10.3-55.5c1-2.1,24.7-162.5,24.7-162.5v-1c0-1,0-2.1-1-3.1l-8.2-9.2
	c-6.2-7.2-13.3-14.4-20.6-19.5l-8.2-9.2c-21.6-24.7-45.2-38.1-79.2-44.2c-32.9-5.1-64.8-2.1-94.6,7.2c-4.1-8.2-8.2-16.5-14.4-23.7
	c0,0-22.6-28.8-45.2-43.2c-16.5-10.3-38.1-11.3-58.6-2.1c-18.5,9.3-31.9,24.7-38.1,44.2c-2.1,7.7-3.1,15.7-3.1,23.7
	c0,3.1,0,6.2,1,8.2c-9.3-1-18.5-2.1-27.8-1h-3.1c7.7-36.2,14.9-72.6,21.6-109v-1v-1v-1l-1-1h-1l-27.8-29.8h-3.1h-2l-176.9,30.8
	c-1.8,0.8-3.3,2.3-4.1,4.1l-5.1,16.5v3.1c-9.2,47.3-18.5,95.7-31.9,138.9c-17.5-7.2-47.3-11.3-95.7,6.2
	c-22.6,7.2-47.3,22.6-69.9,42.2c-2,1-27.8,5.1-44.2,10.3c-16.4,4.1-114.2,43.2-114.2,43.2c-40.1,15.4-89.5,39.1-111.1,51.4
	l-55.5,29.8l-125.5,64.8l-193.4,94.6c-1,1-2.1,2.1-2.1,4.1l-2.1,15.4c0,0-4.1,23.7-6.2,37c-15.4-19.5-39.1-29.8-68.9-30.9
	c-5.1,0-9.3,0-15.4,1c14.4-61.7,38.1-171.7,38.1-171.7v-1v-1c0,0,0-1-1-1v-1l-1-1l-28.8-28.8c0,0-1,0-1-1h-2.1H822l-53.5,26.7
	c-61.7,29.8-132.7,56.6-133.7,56.6l-13.4,6.2c-1,0-99.8,40.1-125.5,49.4l-1,1c-90.5,36-171.8,92.6-231.4,163.5
	c-75.1,86.4-120.3,193.4-134.7,315.8c-13.4,114.2,4.1,206.7,50.4,275.6c12.3,19.5,28.8,37,45.3,51.4c32.9,39.1,76.1,65.8,120.3,74.1
	l3.1,1c79.2,14.4,132.7,17.5,316.8-65.8c52.5-24.1,104.7-49.2,156.3-75.1c84.3-42.2,157.4-79.2,329.1-144
	c200.5-77.1,390.8-113.1,581.1-107c123.4,3.1,243.8,35,245.8,35l20.6,5.1c2.1,1,5.2,0,5.2-1l11.3-19.5
	c152.2-259.2,284.9-346.6,287-347.7l72-47.3h2v-1c0-1,1-1,1-1V1300.6L2376.1,1300.6L2376.1,1300.6z"/>
<path class="st2" d="M646.2,1165.9c0,0,74.1-27.8,136.8-58.6l-56.6,266.4c0,0,47.3-86.4,108-84.3c69.9,3.1,61.7,67.9,46.3,147.1
	c-8.2,40.1-31.9,208.8-31.9,208.8s-96.7,59.7-125.5,76.1c0,0,27.8-182.1,39.1-260.2c8.2-51.4-15.4-60.7-33.9-37
	c-10.3,12.3-19.5,33.9-33.9,120.3c-11.3,66.8-31.9,213.9-31.9,213.9s-102.9,58.6-135.8,39.1C526.8,1797.4,595.8,1358.2,646.2,1165.9
	L646.2,1165.9z M943.4,1253.3l121.4-59.7c-22.6,118.3-36,205.7-41.1,233.5c-7.2,52.5,15.4,58.6,40.1,22.6
	c9.2-12.3,12.3-25.7,19.5-59.7c15.4-92.6,43.2-226.3,43.2-226.3l122.4-63.8c0,0-51.4,200.6-75.1,363.1l-110,60.7l5.1-30.9
	c0,0-23.7,53.5-76.1,83.3c-56.6,31.9-100.8,0-85.4-89.5C917.7,1431.3,943.4,1253.3,943.4,1253.3L943.4,1253.3z M1720.9,922.1
	c0,0-21.6-16.5-81.2,3.1c-59.7,20.6-144,109-173.8,240.7c-29.8,130.6,15.4,192.3,99.8,155.3c51.5-18.5,82.3-61.7,82.3-61.7
	l26.7-113.1c0,0-32.9,69.9-77.1,80.2c-41.1,10.3-42.2-58.6-23.7-117.3c15.4-47.3,49.4-100.8,85.4-113.1
	c25.7-7.2,41.1,12.3,41.1,12.3L1720.9,922.1L1720.9,922.1z M1787.8,755.5c0,0-29.8,127.5-55.5,233.5
	c-27.8,117.3-60.7,292.1-60.7,292.1s96.7-21.6,123.4-27.8c0,0,32.9-179,42.2-219.1c7.2-31.9,14.4-45.3,23.7-52.4
	c19.6-16.5,42.2-11.3,33.9,29.8c-16.5,82.3-45.2,234.5-45.2,234.5s87.4-10.3,114.2-11.3c0,0,36-197.5,48.3-261.2
	c13.4-62.7-4.1-107-50.4-102.9s-94.6,48.3-110,84.3l52.5-220.1L1787.8,755.5L1787.8,755.5z M2040.8,792.5
	c35-15.4,51.4,30.9,51.4,54.5c1,24.7-14.4,68.9-59.7,86.4c0,0,12.3-30.8,0-53.5C2020.3,857.3,2003.8,811.1,2040.8,792.5
	L2040.8,792.5z M2282.5,960.2c-6.2-17.5-16.4-33.9-32.9-42.2c-30.9-14.4-59.7,0-65.8,16.5c-11.3,37,136.8,84.3,86.4,220.1
	c-28.8,75.1-112.1,89.5-162.5,86.4c-35-2-85.4-23.6-101.8-61.7l18.5-101.8c21.6,51.4,42.2,65.8,64.8,77.1
	c18.5,10.3,66.8,20.6,80.2-10.3c23.7-50.4-130.6-75.1-95.7-197.5c18.5-63.8,88.5-100.8,160.4-89.5c26.7,5.1,44.2,16.5,58.6,32.9
	L2282.5,960.2L2282.5,960.2z M1294.1,1078.5c0,0,65.8-37,118.3-57.6l-14.4,52.4c0,0,39.1-88.5,122.4-93.6l-58.6,125.5
	c0,0-76.1,4.1-92.6,92.6c-15.4,73-38.1,189.2-38.1,189.2l-114.2,55.5C1217,1442.6,1251.9,1241,1294.1,1078.5L1294.1,1078.5z"/>
<path class="st2" d="M610.1,1182.3l-41.1,182c0,0-11.3-54.5-53.5-49.4c-85.4,11.3-192.3,136.8-188.2,336.3
	c3.1,185.1,141.9,263.3,339.4,153.3c196.4-110.1,516.3-323,810.5-417.6c296.2-92.6,524.5-108,777.6-90.5c0,0-138.8,87.4-297.2,357.9
	c0,0-123.4-32.9-255.1-36c-129.6-4.1-329.1,8.2-592.4,109c-264.3,100.8-301.4,135.8-487.5,220.1c-186.2,85.4-232.4,75.1-300.3,62.7
	c-66.8-12.3-176.9-94.6-159.4-336.3c17.5-240.7,192.3-390.8,344.6-452.5C539.2,1211.1,584.4,1192.6,610.1,1182.3L610.1,1182.3z"/>
<path class="st0" d="M1051.4,1705.9c-8.2,9.3-17.5,16.5-27.8,20.6c-29.8,14.4-39.1-7.2-38.1-29.8c2-27.8,19.5-56.6,45.3-68.9
	c10.3-4.1,18.5-6.2,25.7-5.1l-2.1,28.8c-7.2-3.1-13.4-3.1-20.6,0c-12.3,6.2-21.6,18.5-22.6,32.9s6.2,19.6,19.5,14.4
	c8.2-3.1,14.4-8.2,22.6-17.5L1051.4,1705.9L1051.4,1705.9z M1129.6,1583.5l26.7-11.3l-4.1,35l30.9-12.3l3.1-36l28.8-13.4l-9.3,101.8
	l-28.8,11.3l4.1-37l-29.8,11.3l-4.1,38.1l-25.7,10.3L1129.6,1583.5L1129.6,1583.5z M1286.9,1513.5l31.9-11.3l-9.3,111.1l-30.9,11.3
	L1286.9,1513.5L1286.9,1513.5z M1455.6,1568c-7.9,8.9-18.3,15.4-29.8,18.5c-31.9,7.2-40.1-25.7-36-54.5c4.1-37,23.7-68.9,52.5-76.1
	c10.3-2.1,17.5-1,24.7,2.1l-3.1,37c-7.2-6.2-13.4-8.2-21.6-6.2c-13.4,4.1-23.7,17.5-25.7,36c-2,19.5,5.1,28.8,19.5,26.7
	c7.2-2,14.4-6.2,23.7-17.5L1455.6,1568L1455.6,1568z M1548.2,1432.3l28.8-6.2l-10.3,63.8l44.2-72l33.9-8.2l-47.3,76.1l26.7,74.1
	l-38.1,4.1l-20.6-63.8v1l-10.3,66.9l-28.8,4.1L1548.2,1432.3L1548.2,1432.3z M1719.9,1398.3l68.9-10.3l-6.2,37l-37,4.1l-6.2,27.8
	l35-2l-6.2,35l-33.9,2l-5.1,30.9l37-1l-6.2,35l-66.8,2.1L1719.9,1398.3L1719.9,1398.3z M1870.1,1383.9h24.7l23.7,98.7l18.5-97.7
	h32.9l-42.2,189.3l-24.7-4.1l-22.6-95.7l-17.5,90.5l-26.8-4.1L1870.1,1383.9z"/>
<path class="st2" d="M1055.5,1922.9c-6.2-8.2-10.3-13.4-16.5-15.4c-5.1-2.1-8.2-2.1-10.3,1c-5.1,10.3,25.7,21.6,14.4,45.2
	c-6.2,14.4-19.5,16.5-32.9,10.3c-9.3-4.1-13.4-11.3-17.5-17.5l7.2-14.4c5.1,11.3,8.2,15.4,16.5,19.5c5.1,2,8.2,1,10.3-3.1
	c5.1-10.3-25.7-21.6-14.4-46.3c6.2-11.3,18.5-14.4,32.9-8.2c6.2,3.1,11.3,7.2,16.5,14.4L1055.5,1922.9z M1090.5,1994.9l-15.4-5.1
	l23.6-72l15.4,5.1L1090.5,1994.9z M1203.6,2017.5l-14.4-2.1l-28.8-53.5l-7.2,48.4l-16.5-3.1l12.3-74.1l14.4,2.1l27.8,50.4l6.2-45.3
	l16.5,2.1L1203.6,2017.5L1203.6,2017.5z M1312.6,2009.3c-9.2,6.2-15.4,9.3-25.7,9.3c-24.7,2.1-37-17.5-38.1-36
	c-1-20.6,10.3-40.1,36-42.2c9.2,0,16.5,2,23.7,5.1v17.5c-7.2-4.1-14.4-7.2-22.6-6.2c-13.3,1-22.6,11.3-22.6,23.7
	c1,13.4,11.3,23.6,24.7,22.6c9.2-1,14.4-5.1,23.7-10.3L1312.6,2009.3L1312.6,2009.3z M1407.3,1996.9l-46.3,11.3l-18.5-73l46.3-12.3
	l3.1,14.4l-29.8,7.2l3.1,15.4l28.8-7.2l4.1,14.4l-28.8,6.2l3.1,17.5l31.9-7.2L1407.3,1996.9L1407.3,1996.9z M1526.6,1945.5
	l-13.4,7.2l-37-65.8l13.4-7.2L1526.6,1945.5L1526.6,1945.5z M1565.6,1857.1c4.1,5.1,5.1,11.3,1,13.4c-2,2-4.1,2-6.2,1v14.4
	c5.1,1,11.3-1,14.4-6.2l5.1,31.9l13.4-9.3l-4.1-24.7c-2-12.3-6.2-21.6-11.3-28.8c-5.1-6.2-11.3-10.3-17.5-11.3v14.4L1565.6,1857.1
	L1565.6,1857.1z M1560.5,1871.5c-2-1-4.1-3.1-6.2-5.1c-4.1-5.1-4.1-11.3-1-13.4c2-2,4.1-2,7.2-1v-14.4c-6.2-1-11.3,0-16.4,3.1
	c-9.3,8.2-9.3,22.6-1,35c5.1,6.2,11.3,9.3,17.5,10.3L1560.5,1871.5L1560.5,1871.5z M1624.3,1791.2l-15.4,14.4l10.3,10.3
	c9.2-12.3,23.6-9.3,32.9,0c11.3,9.3,11.3,22.6,1,32.9c-4.1,4.1-10.3,8.2-13.3,8.2l-10.3-9.3c5.1-1,10.3-3.1,12.3-6.2
	c5.1-4.1,5.1-10.3,0-15.4c-6.2-5.1-15.4-2.1-21.6,8.2l-31.9-29.8l23.7-24.7L1624.3,1791.2L1624.3,1791.2z M1723,1761.4l-25.7,35
	l-1-1c-4.1-11.3-9.3-23.7-13.4-30.9c-4.1-10.3-8.2-15.4-12.3-18.5c-5.1-4.1-11.3-4.1-14.4,1c-2,3.1-3.1,10.3-1,17.5l-13.4-8.2
	c0-9.3,1-14.4,5.1-20.6c7.2-9.3,18.5-11.3,29.8-3.1c7.2,5.1,14.4,17.5,21.6,37l12.3-17.5L1723,1761.4L1723,1761.4z"/>
<path class="st0" d="M2144.7,1646.2v12.3h-21.6v58.6h-14.4v-58.6h-21.6v-12.3H2144.7z M2200.3,1646.2h20.6v71h-13.4v-48.4v-6.2v-5.1
	l-13.3,59.7h-14.4l-12.3-59.7v59.7H2153v-71h21.6l13.4,55.5L2200.3,1646.2z"/>
</svg>
