<?xml version="1.0" encoding="utf-8"?>
<!-- Generator: Adobe Illustrator 24.1.2, SVG Export Plug-In . SVG Version: 6.00 Build 0)  -->
<svg version="1.1" id="Layer_1" xmlns="http://www.w3.org/2000/svg" xmlns:xlink="http://www.w3.org/1999/xlink" x="0px" y="0px"
	 viewBox="0 0 141.2 35.3" style="enable-background:new 0 0 141.2 35.3;" xml:space="preserve">
<style type="text/css">
	.st0{clip-path:url(#SVGID_2_);}
	.st1{clip-path:url(#SVGID_4_);}
	.st2{fill:#777777;}
	.st3{clip-path:url(#SVGID_6_);}
	.st4{fill:#FEFEFE;}
	.st5{clip-path:url(#SVGID_8_);}
	.st6{clip-path:url(#SVGID_10_);}
	.st7{clip-path:url(#SVGID_12_);}
	.st8{clip-path:url(#SVGID_14_);}
	.st9{clip-path:url(#SVGID_16_);}
	.st10{clip-path:url(#SVGID_18_);}
	.st11{clip-path:url(#SVGID_20_);}
	.st12{clip-path:url(#SVGID_22_);}
	.st13{clip-path:url(#SVGID_24_);}
	.st14{clip-path:url(#SVGID_26_);}
	.st15{clip-path:url(#SVGID_28_);}
	.st16{clip-path:url(#SVGID_30_);}
</style>
<g>
	<g>
		<defs>
			<rect id="SVGID_1_" width="141.2" height="35.3"/>
		</defs>
		<clipPath id="SVGID_2_">
			<use xlink:href="#SVGID_1_"  style="overflow:visible;"/>
		</clipPath>
		<g class="st0">
			<g>
				<g>
					<defs>
						<rect id="SVGID_3_" width="141.2" height="35.3"/>
					</defs>
					<clipPath id="SVGID_4_">
						<use xlink:href="#SVGID_3_"  style="overflow:visible;"/>
					</clipPath>
					<g class="st1">
						<path class="st2" d="M141.2,35.3H0V0h141.2V35.3z"/>
					</g>
				</g>
			</g>
			<g>
				<g>
					<defs>
						<rect id="SVGID_5_" width="141.2" height="35.3"/>
					</defs>
					<clipPath id="SVGID_6_">
						<use xlink:href="#SVGID_5_"  style="overflow:visible;"/>
					</clipPath>
					<g class="st3">
						<path class="st4" d="M38.4,19.1v-3.6C41.4,15.3,41.4,19.4,38.4,19.1z M42.8,14c-1.1-1.1-2.6-1.4-4.6-1.5c0,0-2.6,0.1-3.3,0.1
							V22c2.1,0,5,0.2,6.5-0.4C44.1,20.4,45.1,16.3,42.8,14z"/>
					</g>
				</g>
			</g>
			<g>
				<g>
					<defs>
						<rect id="SVGID_7_" width="141.2" height="35.3"/>
					</defs>
					<clipPath id="SVGID_8_">
						<use xlink:href="#SVGID_7_"  style="overflow:visible;"/>
					</clipPath>
					<g class="st5">
						<path class="st4" d="M92.7,12.7h3.4c1.7,3.2,2.9,4.8,2.9,4.8v-4.8c1.1,0,2.2,0,3.3,0c0,2.3,0,5.7,0,9.3h-3.5
							c-0.6-1-1.7-2.9-2.7-4.5c0,0.8,0,3.3,0,4.5h-3.4C92.7,20.7,92.8,15,92.7,12.7z"/>
					</g>
				</g>
			</g>
			<g>
				<g>
					<defs>
						<rect id="SVGID_9_" width="141.2" height="35.3"/>
					</defs>
					<clipPath id="SVGID_10_">
						<use xlink:href="#SVGID_9_"  style="overflow:visible;"/>
					</clipPath>
					<g class="st6">
						<path class="st4" d="M22.7,12.8l-3.5,6.1h7.1l-3.5-6.2L22.7,12.8z M24.7,9.4l5.6,9.5l-2,3.1H16.9l-1.8-3l4-6.4h3.5h0.2
							l-1.7-3.2C21.1,9.4,24.7,9.4,24.7,9.4z"/>
					</g>
				</g>
			</g>
			<g>
				<g>
					<defs>
						<rect id="SVGID_11_" width="141.2" height="35.3"/>
					</defs>
					<clipPath id="SVGID_12_">
						<use xlink:href="#SVGID_11_"  style="overflow:visible;"/>
					</clipPath>
					<g class="st7">
						<path class="st4" d="M69.3,12.6L69.3,12.6h-3.2l0,0L62.7,22H66l1.7-5.6l1.7,5.6h3.3L69.3,12.6z"/>
					</g>
				</g>
			</g>
			<g>
				<g>
					<defs>
						<rect id="SVGID_13_" width="141.2" height="35.3"/>
					</defs>
					<clipPath id="SVGID_14_">
						<use xlink:href="#SVGID_13_"  style="overflow:visible;"/>
					</clipPath>
					<g class="st8">
						<path class="st4" d="M115.3,12.6L115.3,12.6h-3.2l-3.4,9.4h3.3l1.7-5.6l1.7,5.6h3.3L115.3,12.6z"/>
					</g>
				</g>
			</g>
			<g>
				<g>
					<defs>
						<rect id="SVGID_15_" width="141.2" height="35.3"/>
					</defs>
					<clipPath id="SVGID_16_">
						<use xlink:href="#SVGID_15_"  style="overflow:visible;"/>
					</clipPath>
					<g class="st9">
						<path class="st4" d="M51,22h-6.4v-9.4H51v2.5h-3V16h2.6v2.4H48v0.9h3V22z"/>
					</g>
				</g>
			</g>
			<g>
				<g>
					<defs>
						<rect id="SVGID_17_" width="141.2" height="35.3"/>
					</defs>
					<clipPath id="SVGID_18_">
						<use xlink:href="#SVGID_17_"  style="overflow:visible;"/>
					</clipPath>
					<g class="st10">
						<path class="st4" d="M79.3,19.1v-3.6C82.3,15.3,82.3,19.4,79.3,19.1z M83.7,14c-1.1-1.1-2.6-1.4-4.6-1.5c0,0-2.6,0.1-3.3,0.1
							V22c2.1,0,5,0.2,6.5-0.4C85.1,20.4,86,16.3,83.7,14z"/>
					</g>
				</g>
			</g>
			<g>
				<g>
					<defs>
						<rect id="SVGID_19_" width="141.2" height="35.3"/>
					</defs>
					<clipPath id="SVGID_20_">
						<use xlink:href="#SVGID_19_"  style="overflow:visible;"/>
					</clipPath>
					<g class="st11">
						<path class="st4" d="M91.9,22h-6.4v-9.4h6.4v2.5h-3V16h2.6v2.4H89v0.9h2.9V22z"/>
					</g>
				</g>
			</g>
			<g>
				<g>
					<defs>
						<rect id="SVGID_21_" width="141.2" height="35.3"/>
					</defs>
					<clipPath id="SVGID_22_">
						<use xlink:href="#SVGID_21_"  style="overflow:visible;"/>
					</clipPath>
					<g class="st12">
						<path class="st4" d="M51.8,22v-9.4h3.4V19H58v3H51.8z"/>
					</g>
				</g>
			</g>
			<g>
				<g>
					<defs>
						<rect id="SVGID_23_" width="141.2" height="35.3"/>
					</defs>
					<clipPath id="SVGID_24_">
						<use xlink:href="#SVGID_23_"  style="overflow:visible;"/>
					</clipPath>
					<g class="st13">
						<path class="st4" d="M119.2,22v-9.4h3.4V19h2.9v3H119.2z"/>
					</g>
				</g>
			</g>
			<g>
				<g>
					<defs>
						<rect id="SVGID_25_" width="141.2" height="35.3"/>
					</defs>
					<clipPath id="SVGID_26_">
						<use xlink:href="#SVGID_25_"  style="overflow:visible;"/>
					</clipPath>
					<g class="st14">
						<path class="st4" d="M57,15.6v-3h7.2v3h-1.8V22h-3.5v-6.4H57z"/>
					</g>
				</g>
			</g>
			<g>
				<g>
					<defs>
						<rect id="SVGID_27_" width="141.2" height="35.3"/>
					</defs>
					<clipPath id="SVGID_28_">
						<use xlink:href="#SVGID_27_"  style="overflow:visible;"/>
					</clipPath>
					<g class="st15">
						<path class="st4" d="M103,15.6v-3h7.2v3h-1.8V22h-3.5v-6.4H103z"/>
					</g>
				</g>
			</g>
			<g>
				<g>
					<defs>
						<rect id="SVGID_29_" width="141.2" height="35.3"/>
					</defs>
					<clipPath id="SVGID_30_">
						<use xlink:href="#SVGID_29_"  style="overflow:visible;"/>
					</clipPath>
					<g class="st16">
						<path class="st4" d="M126.5,13.1c0.2,0,0.5,0,0.5-0.2c0-0.1-0.2-0.2-0.3-0.2h-0.4v0.4H126.5z M127.1,14h-0.2l-0.4-0.6h-0.2V14
							H126v-1.4h0.6c0.3,0,0.5,0.1,0.5,0.4c0,0.3-0.2,0.4-0.4,0.4L127.1,14z M127.6,13.3c0-0.6-0.5-1.1-1.1-1.1s-1.1,0.5-1.1,1.1
							s0.5,1.1,1.1,1.1C127.1,14.4,127.6,13.9,127.6,13.3z M125.2,13.3c0-0.7,0.6-1.3,1.3-1.3c0.7,0,1.3,0.6,1.3,1.3
							s-0.6,1.3-1.3,1.3C125.8,14.6,125.2,14,125.2,13.3z"/>
					</g>
				</g>
			</g>
		</g>
	</g>
</g>
</svg>
