<?xml version="1.0" encoding="utf-8"?>
<!-- Generator: Adobe Illustrator 24.1.2, SVG Export Plug-In . SVG Version: 6.00 Build 0)  -->
<svg version="1.1" id="Layer_1" xmlns="http://www.w3.org/2000/svg" xmlns:xlink="http://www.w3.org/1999/xlink" x="0px" y="0px"
	 viewBox="0 0 300 300" style="enable-background:new 0 0 300 300;" xml:space="preserve">
<style type="text/css">
	.st0{clip-path:url(#SVGID_2_);fill:#FFFFFF;}
	.st1{clip-path:url(#SVGID_4_);}
	.st2{clip-path:url(#SVGID_6_);}
	.st3{clip-path:url(#SVGID_8_);}
</style>
<g>
	<g>
		<g>
			<defs>
				<rect id="SVGID_1_" width="300" height="300"/>
			</defs>
			<clipPath id="SVGID_2_">
				<use xlink:href="#SVGID_1_"  style="overflow:visible;"/>
			</clipPath>
			<polygon class="st0" points="150,0 0,0 0,150 0,300 150,300 300,300 300,150 300,0 			"/>
		</g>
		<g>
			<defs>
				<rect id="SVGID_3_" width="300" height="300"/>
			</defs>
			<clipPath id="SVGID_4_">
				<use xlink:href="#SVGID_3_"  style="overflow:visible;"/>
			</clipPath>
			<path class="st1" d="M215.5,77.5h6.2c5.9,0,8.6,5.5,8.6,9.6v64.5c0,4.6-2.7,9-8,8.9h-6.8V77.5z M221.8,75.1h-24.7v2.4h6.5v145
				h-6.5v2.6H225v-2.6h-9.4v-59h8.1c11.8,0,18.6-6.2,18.6-14.6v-58C242.2,82.6,236.4,75.1,221.8,75.1"/>
		</g>
		<g>
			<defs>
				<rect id="SVGID_5_" width="300" height="300"/>
			</defs>
			<clipPath id="SVGID_6_">
				<use xlink:href="#SVGID_5_"  style="overflow:visible;"/>
			</clipPath>
			<path class="st2" d="M90.9,77c0,2.4-1.4,2.2-2.5,1.4c-4-2.8-8.9-4.8-13.3-4.8c-7.2,0.1-17.4,3.5-17.5,18.6v111.2
				c0.1,19.3,9.4,22.9,18.6,23c7.1,0.1,10.5-3.7,13.4-5c1.5-0.7,3.2,0.9,3.2,3.7h3v-70.7h5.9v-2.4H76.6v2.4h7.3v60.8
				c0,4.9-3.4,8.7-7.6,8.7c-4.1,0-7.2-3.9-7.2-8.7V87.9c0-3.5,0.6-11.5,6-11.5c10.3,0.1,15.8,30.2,15.9,45.9h3V75h-2.9L90.9,77z"/>
		</g>
		<g>
			<defs>
				<rect id="SVGID_7_" width="300" height="300"/>
			</defs>
			<clipPath id="SVGID_8_">
				<use xlink:href="#SVGID_7_"  style="overflow:visible;"/>
			</clipPath>
			<path class="st3" d="M136.5,160.8l7.2-64.7l7.4,64.7H136.5z M151.4,163.4l6.7,59.1h-6.6v2.6h24.8v-2.6h-6.5L153.3,75.1h-10.6
				l-15.3,139.2c-0.9,5-1.4,8.1-8.6,8.2v2.6h18.6v-2.6c-5.3,0-7.7-3.4-7.1-6.9l5.9-52.1L151.4,163.4L151.4,163.4z"/>
		</g>
	</g>
</g>
</svg>
