<?xml version="1.0" encoding="utf-8"?>
<!-- Generator: Adobe Illustrator 24.1.2, SVG Export Plug-In . SVG Version: 6.00 Build 0)  -->
<svg version="1.1" id="Layer_1" xmlnsSerif="http://www.serif.com/"
	 xmlns="http://www.w3.org/2000/svg" xmlnsXlink="http://www.w3.org/1999/xlink" x="0px" y="0px" viewBox="0 0 300 250"
	 style="enable-background:new 0 0 300 250;" xmlSpace="preserve">
<style type="text/css">
	.st0{fill:#FFFFFF;}
	.st1{fill:#969696;}
</style>
<path class="st0" d="M271.5,125.5c0,67.1-54.4,121.5-121.5,121.5c-67.1,0-121.5-54.4-121.5-121.5C28.4,58.4,82.9,4,150,4
	C217.1,4,271.5,58.4,271.5,125.5z"/>
<path class="st1" d="M138.5,97.6h6.3V83.8h-37.6v13.8h6.7v51.7c0,8-0.5,12.9-7.1,12.9c-0.4,0-0.8,0-1.2-0.1v14.1
	c3.3,0.4,5.3,0.6,9.1,0.6c9,0,13.5-1.5,17.9-5.8c4.5-4.5,5.9-9.8,5.9-22.3V97.6z"/>
<path class="st1" d="M189.6,97.6h6.3V83.8h-37.6v13.8h6.7v51.7c0,8-0.5,12.9-7.1,12.9c-0.4,0-0.8,0-1.2-0.1v14.1
	c3.3,0.4,5.3,0.6,9.1,0.6c9,0,13.5-1.5,17.9-5.8c4.5-4.5,5.9-9.8,5.9-22.3V97.6z"/>
<g>
	<path d="M150,232.4c-59,0-106.9-47.9-106.9-106.9c0-59,47.8-106.9,106.9-106.9c59,0,106.9,47.9,106.9,106.9
		C256.8,184.6,209,232.4,150,232.4z M150,14.1C88.4,14.1,38.5,64,38.5,125.5C38.5,187.1,88.4,237,150,237
		c61.6,0,111.5-49.9,111.5-111.5C261.4,64,211.5,14.1,150,14.1z"/>
	<path d="M102.8,102h6.7v47.3c0,8.5-0.7,8.5-2.7,8.5c-0.7,0-1.5-0.1-2.5-0.4l-3.1-0.8v23.5l2.2,0.3c4.6,0.7,6.7,0.9,11.4,0.9
		c8.8,0,15.1-1.2,21-7.1c6.1-6.1,7.2-13.4,7.2-25.4V102h6.3V79.4h-46.4V102z"/>
	<path d="M153.9,79.4V102h6.7v47.3c0,8.5-0.7,8.5-2.7,8.5c-0.7,0-1.5-0.1-2.5-0.4l-3.1-0.8v23.5l2.2,0.3c4.6,0.7,6.7,0.9,11.4,0.9
		c8.8,0,15.1-1.2,21-7.1c6.1-6.1,7.2-13.4,7.2-25.4V102h6.3V79.4H153.9z"/>
	<path d="M66.2,158.6l0.1,0l-1.7-5.3l0-0.1l-2.1,0.7l0.6,1.9c-1.2,0-2-0.7-2.4-1.9c-0.5-1.5,0-3.5,2.7-4.4c2-0.7,3.8,0.1,4.4,1.9
		c0.2,0.7,0.2,1.4,0,2c-0.2,0.7-0.6,1.2-1.1,1.6l-0.1,0.1l0.7,2.1l4.1-1.3l0.1,0l-0.7-2.1l-0.8,0.3c0.4-1,0.3-2.3-0.1-3.7
		c-1.2-3.5-4.3-5.2-7.8-4.1c-3.5,1.2-5,4.4-3.8,8.2c0.6,1.9,1.9,3.5,3.4,4.2c0.7,0.3,1.4,0.5,2.1,0.5
		C64.6,159,65.4,158.9,66.2,158.6z"/>
	<path d="M68.4,163.4c1.1-0.6,2.2-0.7,3.1-0.5c0.8,0.2,1.4,0.7,1.7,1.4c0.9,1.6,0.1,3.4-1.9,4.5c-2.3,1.2-4.1,0.4-4.8-1
		C65.8,166.3,66.5,164.4,68.4,163.4z M75.4,163.3c-0.9-1.8-2.3-3-4-3.5c-1.5-0.4-3.1-0.3-4.5,0.5c-1.4,0.7-2.5,2-3,3.4
		c-0.6,1.6-0.3,3.5,0.6,5.3c1,1.8,2.3,3.1,4,3.5c0.5,0.1,1,0.2,1.6,0.2c1,0,2-0.2,2.9-0.7C75.7,170.6,77.5,167.3,75.4,163.3z"/>
	<path d="M83.5,180l1.8-1.3l-2.7-3.7l-0.1-0.1l-1.8,1.3l0.6,0.8l-4.8,3.5c-0.9,0.7-1.7,0.6-2.3-0.2c-0.6-0.8-0.4-1.4,0.6-2.2
		l4.7-3.4l0.6,0.8l1.8-1.3l-3.3-4.5l-0.1-0.1l-1.8,1.3l0.8,1.1l-4.8,3.5c-2,1.5-2.2,3.5-0.5,5.8c0.4,0.6,1.6,2,3.3,2
		c0.6,0,1.2-0.2,1.9-0.7l5.2-3.8L83.5,180z"/>
	<path d="M87,187.3l-0.8-0.8l1.7-1.7l1,1c0.9,0.9,0.2,1.7,0.1,1.8C88.8,187.8,88.1,188.4,87,187.3z M88,190.6
		c1.4,0.5,2.5,0.3,3.5-0.7c0.7-0.7,1-1.5,1-2.3c0-0.9-0.4-1.8-1.2-2.6l-5.1-5.1l-0.1-0.1l-1.6,1.6l1.1,1.1l-5.3,5.3l-1.1-1.1
		l-1.6,1.6l4.4,4.4l0.1,0.1l1.6-1.6l-1-1l2.1-2l0.8,0.8l-1.7,5.4l0,0.1l2.6,2.6l0.1,0.1l1.6-1.6l-1.1-1.1L88,190.6z"/>
	<path d="M106.8,199.7l1.2,0.9l1.3-1.8l-5-3.4l-0.1,0l-5.9,4l1.7-6.8l0-0.1l-5-3.4l-1.3,1.8l1.2,0.9l-4.3,6.1l-1.2-0.9l-1.3,1.8
		l4.3,2.9l1.3-1.8l-1.3-0.9l4.3-6.1l0.1,0l-2.5,10l0,0.1l1.2,0.8l8.5-5.9l0.1,0l-4.3,6.1l-1.3-0.9l-1.3,1.8l5.1,3.6l1.3-1.8
		l-1.3-0.9L106.8,199.7z"/>
	<path d="M110.7,199.2l-0.9,2l1.3,0.6l-3.1,6.8l-1.3-0.6l-0.9,2l9.5,4.3l0.1,0.1l1.6-3.6l-2.2-1l-0.7,1.6L111,210l1.2-2.6l2.7,1.2
		l0.9-2l-2.7-1.2l1-2.2l3.1,1.4l-0.7,1.6l2.2,1l1.6-3.6l-9.5-4.3L110.7,199.2z"/>
	<path d="M122,204.2l-1.3,4.6l0,0.1l2.2,0.6l0.7-2.6l1.5,0.4l-2,7.2l-1.7-0.5l-0.6,2.1l6.4,1.8l0.1,0l0.6-2.1l-1.7-0.5l2-7.2
		l1.5,0.4l-0.7,2.5l0,0.1l2.1,0.6l0.1,0l1.3-4.6l0-0.1l-10.3-2.9L122,204.2z"/>
	<path d="M145,209.4c-0.4-0.6-1.1-1-2-1c-1.6-0.1-3.3,0.8-3.5,3.1c-0.2,2.1,1.5,3.1,2.9,3.9c1,0.6,1.9,1.1,1.9,2
		c0,0.3-0.2,0.6-0.4,0.8c-0.2,0.2-0.5,0.3-0.8,0.3c-0.4,0-0.8-0.2-1.1-0.6c-0.3-0.4-0.5-0.9-0.4-1.5l0-0.1l-2.2-0.2L139,220l0,0.1
		l2.2,0.2l0.1-0.8c0.5,0.7,1.2,1,2.2,1.1c0.1,0,0.2,0,0.3,0c1.3,0,3.3-0.7,3.5-3.3c0.2-2.5-1.7-3.5-3.2-4.3c-1-0.5-1.8-0.9-1.7-1.6
		c0-0.5,0.5-0.8,1.1-0.7c0.8,0.1,1.4,0.7,1.4,1.7l0,0.1l2.2,0.2l0.3-3.7l0-0.1l-2.2-0.2L145,209.4z"/>
	<path d="M155.4,214.6l-1.7,0.1l0.7-3.1L155.4,214.6z M159.7,218.1l-2.7-7.3l1.5-0.1l-0.1-2.2l-7.8,0.4l0.1,2.2l1.5-0.1l-1.8,7.6
		l-1.5,0.1l0.1,2.2l5.4-0.3l-0.1-2.2l-1.5,0.1l0.5-1.8l2.8-0.1l0.6,1.7l-1.4,0.1l0.1,2.2l5.9-0.3l-0.1-2.2L159.7,218.1z"/>
	<path d="M174.2,207.9l-0.4-2.2l-5.4,1.1l0.5,2.2l1.5-0.3l1,4.7l-5.5-6l-5,1l0.5,2.2l1.5-0.3l1.5,7.3l-1.5,0.3l0.5,2.2l5.1-1.1
		l0.1,0l-0.4-2.2l-1.4,0.3l-1.2-5.9l6.4,7.1l0,0.1l2.7-0.6l-2-9.5L174.2,207.9z"/>
	<path d="M184.4,212l-1,0.4l-2.7-6.9l0.9-0.3c1-0.4,1.9-0.4,2.7,0c0.8,0.4,1.4,1.2,1.8,2.3c0.4,1.1,0.5,2,0.2,2.8
		C186,211,185.4,211.6,184.4,212z M186,202.7c-1.5-0.6-3-0.6-5.1,0.3l-5.7,2.2l-0.1,0l0.8,2.1l1.6-0.7l2.7,6.9l-1.6,0.7l0.8,2.1
		l6.6-2.6c2.6-1,4.6-3.8,3.1-7.6C188.6,204.5,187.5,203.3,186,202.7z"/>
	<path d="M202.9,193.6l-1.2-1.9l-4.2,2.6l1.2,1.9l1-0.6l1.3,5.3l-4.2-3.5l0.9-0.5l-1.2-1.9l-3.8,2.3l1.2,1.9l0.9-0.5l1.3,5.2
		l-4.2-3.5l1-0.6l-1.2-1.9l-4.7,2.9l1.2,1.9l1.1-0.7l7.9,6.5l0.1,0.1l2-1.2l-1.3-5.2l4.1,3.4l0.1,0.1l1.9-1.2l-2.4-10L202.9,193.6z"
		/>
	<path d="M212.6,194.7l-4.9-5.7l1.3-1.2l-1.4-1.7l-5.1,4.4l-0.1,0.1l1.4,1.7l1.3-1.2l4.9,5.7l-1.3,1.2l1.4,1.7l5.1-4.4l0.1-0.1
		l-1.4-1.7L212.6,194.7z"/>
	<path d="M222.6,181.7l-2.6,1.1l0.1,0.1c1.1,1.6,1.1,3.1,0.1,4.3c-0.6,0.7-1.4,1-2.2,1c0,0-0.1,0-0.1,0c-0.9,0-1.8-0.4-2.6-1.1
		c-1.7-1.6-2-3.6-0.6-5.1c0.5-0.5,0.8-0.7,1.9-0.9c0.4-0.1,1.1,0.1,1.6,0.3l0.1,0l1.5-1.6l-3.2-2.9l-1.5,1.6l0.6,0.5
		c-1.1,0.2-2.1,0.8-3,1.9c-1.2,1.3-1.8,2.9-1.8,4.5c0.1,1.6,0.8,3.1,2.1,4.3c0.7,0.6,2.1,1.6,3.9,1.7c0.1,0,0.2,0,0.3,0
		c1.7,0,3.3-0.8,4.7-2.4C224.7,185.7,223.4,182.9,222.6,181.7L222.6,181.7z"/>
	<path d="M231.7,171.5l-6.3-4.1l0.7-1.2l-1.9-1.2l-3.2,4.9l1.9,1.2l0.6-1l1.9,1.3l-1.6,2.5l-1.9-1.3l0.6-1l-1.9-1.2l-3.2,4.9
		l1.9,1.2l0.7-1.2l6.3,4.1l-0.8,1.2l1.9,1.2l3.2-4.9l-1.9-1.2l-0.6,1l-2.5-1.6l1.6-2.5l2.5,1.6l-0.6,1l1.9,1.2l3.2-4.9l-1.9-1.2
		L231.7,171.5z"/>
	<path d="M236.6,157.2l-1,2.1l-0.1,0.1l1.6,0.7l-1.4,3.1l-2.6-1.1l1.1-2.6l0.1-0.1l-2-0.9l-1.2,2.7l-2.2-1l1.4-3.1l1.6,0.7l1-2.1
		l0.1-0.1l-3.5-1.6l-0.1,0l-4.2,9.5l0,0.1l1.9,0.9l0.1,0l0.6-1.3l6.8,3l-0.6,1.3l1.9,0.9l0.1,0l4.2-9.5l0.1-0.1l-3.5-1.6
		L236.6,157.2z"/>
	<path d="M242.7,148.9c-0.4-1-1.2-1.7-2.4-2c-2.4-0.7-3.8,0.9-4.9,2.2c-0.7,0.9-1.3,1.5-2,1.3c-0.5-0.1-0.7-0.6-0.5-1.2
		c0.2-0.8,1-1.2,2-1l0.1,0l0.6-2.1l-3.6-1.1l-0.6,2.1l0.7,0.2c-0.7,0.3-1.2,0.9-1.4,1.7c-0.2,0.8-0.2,1.6,0.1,2.3
		c0.4,0.8,1.1,1.4,2.1,1.7c2.1,0.6,3.4-0.8,4.4-2c0.8-0.9,1.5-1.6,2.3-1.4c0.6,0.2,0.9,0.8,0.8,1.4c-0.1,0.4-0.4,0.7-0.8,0.9
		c-0.5,0.2-1,0.3-1.6,0.1l-0.1,0l-0.6,2.1l4,1.2l0.6-2.1l-0.8-0.2c0.7-0.3,1.3-1,1.5-1.9C242.9,150.9,243.1,149.9,242.7,148.9z"/>
	<path d="M62,123.1c-0.9,0-3.2,2.8-3.2,4.6c0,1.9,4.9,2.1,4.9,4.2c0,1.8-2.7,4.9-4.9,4.9c-1.8,0-4.4-2-4.4-3.2
		c0-0.6,1.4-2.3,1.8-2.3c0.2,0,1.1,0.6,1.1,0.9c0,0.3-0.4,1.1-0.4,1.7c0,0.5,0.7,1.5,1.3,1.5c1.2,0,2.6-1.8,2.6-2.8
		c0-1.9-4.9-2.2-4.9-5c0-2.4,3.8-6,5.7-6c0.9,0,3.4,1.6,3.4,2.7c0,0.6-0.7,1.9-1.2,2.8c-0.1,0.2-0.2,0.3-0.4,0.3
		c-0.3,0-1.3-0.5-1.3-0.9c0-0.2,0.1-0.3,0.2-0.6c0.3-0.8,0.6-1.5,0.6-2.1C62.8,123.5,62.4,123.1,62,123.1z"/>
	<path d="M67.2,124.8c0-0.8,0.5-2.2,1.2-2.2c0.5,0,1.5,0.4,1.5,0.9c0,0.8-0.5,2.2-1.2,2.2C68.2,125.7,67.2,125.4,67.2,124.8z
		 M66.2,127.1c0.1-0.3,0.4-0.4,0.7-0.4c0.3,0,1.7,0.8,1.7,1.2c0,0.5-1.7,5.3-1.7,6.8c0,0.3,0.3,0.6,0.6,0.6c0.6,0,1.8-1.7,2.9-3.6
		c0,0,0.2-0.4,0.5-0.4c0.3,0,0.7,0.3,0.7,0.6c0,0.3-0.3,0.7-0.3,0.7c-1.2,2.1-2.5,4.1-4,4.1c-1,0-2.9-0.9-2.9-1.9
		C64.3,133.9,65.9,128.5,66.2,127.1z"/>
	<path d="M77.8,135.3c0.6,0,1.8-1.7,2.9-3.6c0,0,0.2-0.4,0.5-0.4c0.3,0,0.7,0.3,0.7,0.6c0,0.3-0.3,0.8-0.3,0.8
		c-1.2,2.1-2.4,4.1-4,4.1c-1,0-2.9-0.9-2.9-1.9c0-1.4,1.2-4.8,1.2-5.6c0-0.4-0.4-0.7-0.6-0.7c-0.5,0-1.7,0.5-2,1.4
		c-0.6,1.4-1.5,5.8-1.7,6.4c-0.1,0.3-0.1,0.5-0.5,0.5c-0.5,0-1.8-0.5-1.8-1.1c0-0.6,1.6-7.1,2.1-8.5c0.1-0.3,0.4-0.5,0.7-0.5
		c0.4,0,1.4,1.3,1.4,1.3s2.1-1.3,3.2-1.3c0.6,0,1.8,0.9,1.8,1.7c0,1-1.3,5.2-1.3,6.3C77.3,135,77.6,135.3,77.8,135.3z"/>
	<path d="M80.3,133.8c0-3,2.1-7.1,4.5-7.1c1.4,0,3,1.1,3,1.9c0,0.6-0.7,2.4-1.1,2.4c-0.5,0-1.4-0.5-1.4-0.9c0-0.4,0.6-1.2,0.6-1.7
		c0-0.1-0.3-0.3-0.5-0.3c-1.1,0-2.5,3.3-2.5,5.6c0,0.8,0.9,1.5,1.6,1.5c1.1,0,3-1.2,4.4-3.5c0,0,0.2-0.4,0.5-0.4
		c0.3,0,0.8,0.3,0.8,0.6c0,0.3-0.3,0.8-0.3,0.8c-1.6,2.5-3.8,4.1-5.8,4.1C82.4,136.8,80.3,135.3,80.3,133.8z"/>
	<path d="M94.2,128.8c0-0.2-0.3-0.4-0.6-0.4c-0.8,0-2,2.6-2.2,3.6C93.3,131.9,94.2,129.6,94.2,128.8z M92.6,135.3c1,0,2-0.8,2.8-1.8
		c0,0,0.3-0.4,0.5-0.4c0.3,0,0.8,0.4,0.8,0.7c0,0.3-0.4,0.7-0.4,0.7c-0.9,1.1-2.3,2.4-4.1,2.4c-1.6,0-3.7-1.5-3.7-3
		c0-2.4,2.4-7.1,4.4-7.1c1,0,3.1,1.3,3.1,2.1c0,1.2-1.4,4.4-2.8,4.4c-1,0-2-0.3-2-0.3s-0.1,0.3-0.1,0.8
		C91.1,134.5,92,135.3,92.6,135.3z"/>
	<path d="M209,126.7c0,0-1.1,0.8-1.3,0.8c-0.2,0-0.8-0.8-1.1-1.4c0-0.1,0-0.1,0-0.2c0-0.1,0.1-0.2,0.2-0.2c0.7-0.4,3-1.7,3.2-2
		c0.4-0.5,0.7-1.1,0.9-1.1c0.4,0,1.7,0.9,1.7,1.1c0,0.2-0.5,1-0.7,1.6c-0.4,1.2-2.6,9.8-3,11.1c-0.1,0.2-0.2,0.4-0.5,0.4
		c-0.3,0-1.8-0.6-1.8-1.1C206.6,135.3,208.5,128.2,209,126.7z"/>
	<path d="M219.1,130c0.3-0.6,1-2.8,1-4.5c0-0.8-0.9-1.5-1.3-1.5c-1.1,0-2.9,3.7-2.9,5.3c0,0.7,0.8,1.3,1.3,1.3
		C217.7,130.7,218.9,130.3,219.1,130z M215.9,135.1c0.7-0.7,1.7-1.9,2.5-3.4c-0.6,0.2-1.2,0.3-1.7,0.3c-1.2,0-3.6-1.7-3.6-2.9
		c0-2.2,2.9-6.8,5.1-6.8c1.3,0,4.3,1.8,4.3,3.3c0,4.8-2.6,8.8-4.6,10.8c-0.2,0.2-0.3,0.3-0.6,0.3c-0.3,0-1.8-0.6-1.8-1.1
		C215.5,135.5,215.7,135.4,215.9,135.1z"/>
	<path d="M228.2,126.4c0,0.9,0.7,2,1.2,2c1,0,1.8-1.9,1.8-3.1c0-0.9-0.5-1.6-1.1-1.6C228.8,123.7,228.2,125,228.2,126.4z
		 M226.3,133.6c0,0.9,0.8,2.1,1.7,2.1c1.4,0,2.3-2.2,2.3-4.1c0-0.9-1-2.1-1.8-2.1C227.7,129.6,226.3,131.5,226.3,133.6z
		 M233.6,125.4c0,1-0.9,2.7-2.1,3.6c0,0,1.8,1.5,1.8,2.9c0,2.6-2.7,4.9-4.9,4.9c-2.1,0-4.8-1.7-4.8-3.7c0-2.2,1.5-3.9,3.5-4.5
		c0,0-1.5-1.4-1.5-2.6c0-2.4,2.1-3.7,4.1-3.7C231.5,122.4,233.6,123.8,233.6,125.4z"/>
	<path d="M238,125.1c-0.4,0-1.3,0.8-1.5,0.8c-0.2,0-0.6-0.5-0.6-0.7c0-0.3,1.6-2.6,2-2.6c0.6,0,3.4,0.6,3.8,0.6
		c0.3,0,1.6-0.6,1.8-0.6c0.3,0,1,1.1,1,1.4c0,0.3-4.1,4-4.1,4s0.8-0.2,1.1-0.2c1.1,0,2.5,1.7,2.5,2.8c0,2.2-3,6.2-4.8,6.2
		c-1.1,0-2.5-0.4-2.9-0.6c-0.5-0.3-1.9-1.9-1.9-2.3c0-0.4,1.4-1.5,1.7-1.5c0.4,0,0.9,1.2,1.5,2.1c0.1,0.2,1,0.6,1.5,0.6
		c0.9,0,2.3-3.6,2.3-4.9c0-0.4-0.5-1.1-1.1-1.1c-0.4,0-1,0.6-1.4,0.6c-0.3,0-1.3-0.9-1.3-1.3c0-0.1,0-0.2,0.1-0.3
		c0.7-0.6,3.3-3,3.3-3H238z"/>
	<path d="M242.8,109.6c0.1,0.3,0.2,0.5,0.4,0.4c0.2,0,0.3-0.2,0.2-0.6l-0.1-0.4l-0.7,0.2L242.8,109.6z M241.6,110.4
		c0.4-0.3,0.6-0.5,0.7-0.7c0.1-0.1,0.1-0.2,0-0.4l0-0.1l-1,0.2l-0.1-0.5l2.4-0.6l0.3,1.2c0.1,0.6-0.2,0.8-0.5,0.9
		c-0.4,0.1-0.7-0.1-0.8-0.5h0c0,0.3-0.2,0.4-0.9,1L241.6,110.4z M242.3,107.9c-1,0.2-1.6,1.2-1.4,2.3c0.2,1,1.2,1.6,2.3,1.4
		c1-0.2,1.6-1.2,1.4-2.2C244.3,108.3,243.3,107.6,242.3,107.9z M243.2,112c-1.3,0.3-2.5-0.5-2.8-1.7c-0.3-1.3,0.5-2.5,1.7-2.8
		c1.3-0.3,2.5,0.5,2.8,1.7C245.3,110.4,244.5,111.7,243.2,112z"/>
	<path d="M100.4,59.9c0.4-0.2,0.8-0.5,1.1-0.7c-1.7-2.7-3.4-5.5-5.1-8.2c-0.4,0.3-0.8,0.5-1.2,0.8c-0.8-1.3-1.6-2.5-2.4-3.8
		c3.2-2.1,6.4-4.1,9.8-5.9c2,1.7,3.9,3.3,5.8,5c-0.3-2.5-0.5-5.1-0.8-7.6c3.4-1.7,6.8-3.2,10.3-4.6c0.6,1.4,1.1,2.7,1.7,4.1
		c-0.4,0.2-0.9,0.4-1.3,0.5c1.3,3,2.5,5.9,3.8,8.9c0.4-0.2,0.8-0.3,1.3-0.5c0.6,1.4,1.1,2.7,1.7,4.1c-2.7,1.1-5.4,2.2-8,3.5
		c-0.7-1.3-1.3-2.7-2-4c0.4-0.2,0.8-0.4,1.2-0.6c-1.5-3.1-3-6.2-4.4-9.3c0,0,0,0-0.1,0c0.5,5.2,1.1,10.4,1.9,15.5
		c-0.7,0.4-1.5,0.8-2.2,1.2c-3.8-3.5-7.7-7-11.8-10.3l0,0c1.7,3,3.5,5.9,5.2,8.9c0.4-0.2,0.8-0.5,1.2-0.7c0.7,1.3,1.5,2.6,2.2,3.9
		c-1.9,1.1-3.7,2.3-5.5,3.5C102,62.4,101.2,61.2,100.4,59.9z"/>
	<path d="M79.5,82.9c0.3-0.4,0.5-0.7,0.8-1.1c-2.6-1.9-5.2-3.8-7.7-5.7c-0.3,0.4-0.6,0.8-0.8,1.2c-1.2-0.9-2.4-1.7-3.6-2.6
		c2.2-3.1,4.5-6.1,6.9-9.1c2.4,0.8,4.8,1.7,7.2,2.6c-1.2-2.3-2.4-4.5-3.5-6.8c2.5-2.8,5.2-5.5,7.9-8.1c1,1.1,2.1,2.1,3.1,3.2
		c-0.4,0.3-0.7,0.7-1,1c2.3,2.3,4.5,4.6,6.8,6.8c0.3-0.3,0.7-0.6,1-0.9c1,1.1,2.1,2.1,3.1,3.2c-2.1,2-4.2,4.1-6.1,6.2
		c-1.1-1-2.2-2-3.3-3c0.3-0.3,0.6-0.7,0.9-1c-2.5-2.3-5-4.7-7.5-7c0,0,0,0,0,0c2.3,4.7,4.8,9.3,7.5,13.7c-0.6,0.6-1.1,1.3-1.6,1.9
		c-4.8-1.9-9.7-3.6-14.7-5.2c0,0,0,0,0,0c2.7,2.1,5.4,4.2,8.1,6.3c0.3-0.4,0.5-0.7,0.8-1.1c1.2,0.9,2.3,1.8,3.5,2.8
		c-1.3,1.7-2.6,3.5-3.9,5.3C81.9,84.6,80.7,83.8,79.5,82.9z"/>
	<path d="M72.7,96.7c0.2-0.6,0.5-1.1,0.7-1.6c-2.9-1.3-5.9-2.6-8.8-3.9c-0.3,0.6-0.5,1.2-0.8,1.8c-1.4-0.6-2.7-1.1-4.1-1.7
		c1.6-3.8,3.4-7.5,5.3-11.2c1.3,0.7,2.6,1.4,3.9,2.1c-0.3,0.6-0.6,1.1-0.9,1.7c2.9,1.5,5.7,2.9,8.6,4.4c0.3-0.5,0.6-1.1,0.8-1.6
		c1.3,0.7,2.6,1.4,3.9,2.1c-1.7,3.1-3.2,6.3-4.6,9.6C75.4,97.8,74.1,97.2,72.7,96.7z"/>
	<path d="M128.8,46.3c0.5-0.1,1-0.2,1.5-0.3c-0.2-1-0.4-1.9-0.6-2.9c-2-1.9-4.1-3.7-6.3-5.5c-0.4,0.1-0.9,0.2-1.3,0.3
		c-0.3-1.4-0.7-2.9-1-4.3c3.4-0.8,6.9-1.6,10.4-2.2c0.3,1.5,0.6,2.9,0.8,4.4c-0.4,0.1-0.8,0.1-1.1,0.2c0.9,1.1,1.8,2.2,2.7,3.3
		c0.6-1.4,1.2-2.8,1.8-4.2c-0.4,0.1-0.8,0.1-1.2,0.2c-0.3-1.5-0.5-2.9-0.8-4.4c2.6-0.5,5.1-0.9,7.7-1.2c0.2,1.5,0.4,2.9,0.6,4.4
		c-0.4,0.1-0.8,0.1-1.2,0.2c-1.3,2.5-2.6,4.9-3.8,7.4c0.2,1,0.3,1.9,0.5,2.9c0.5-0.1,1-0.2,1.5-0.2c0.2,1.5,0.5,2.9,0.7,4.4
		c-3.3,0.6-6.7,1.2-10,1.9C129.4,49.2,129.1,47.8,128.8,46.3z"/>
	<path d="M178.7,49.5c1.9,0.7,2.9-0.8,4.2-4.1c1.2-3.2,1.5-5.1-0.5-5.8c-2-0.7-3,0.8-4.2,4.1C177,46.9,176.8,48.8,178.7,49.5z
		 M183.9,35.5c7.4,2.8,8.5,9.1,6.8,13.1c-1.8,4-6.8,7.5-13.5,5c-6.7-2.5-8.3-8.4-7-12.6C171.5,36.8,176.5,32.8,183.9,35.5z"/>
	<path d="M190.4,54.1c0.4,0.3,0.8,0.5,1.2,0.8c1.8-2.6,3.6-5.3,5.5-7.9c-0.4-0.3-0.8-0.6-1.2-0.9c0.8-1.2,1.7-2.5,2.5-3.7
		c2.9,2,5.8,4,8.6,6.1c-0.9,1.2-1.8,2.4-2.7,3.6c-0.3-0.2-0.7-0.5-1-0.7c-0.6,0.8-1.1,1.5-1.7,2.3c1.2,0.9,2.4,1.8,3.6,2.7
		c0.6-0.8,1.2-1.5,1.7-2.3c-0.3-0.2-0.7-0.5-1-0.8c0.9-1.2,1.8-2.4,2.7-3.6c2.8,2.1,5.6,4.3,8.3,6.6c-0.9,1.1-1.9,2.3-2.8,3.4
		c-0.4-0.3-0.8-0.6-1.2-1c-2,2.5-4.1,5-6.1,7.5c0.4,0.3,0.7,0.6,1.1,0.9c-0.9,1.1-1.9,2.3-2.8,3.4c-2.5-2.1-5.1-4.1-7.7-6.1
		c0.9-1.2,1.8-2.4,2.7-3.5c0.3,0.2,0.6,0.5,1,0.7c0.6-0.8,1.2-1.6,1.8-2.4c-1.2-0.9-2.4-1.8-3.5-2.7c-0.6,0.8-1.2,1.6-1.8,2.4
		c0.3,0.2,0.6,0.5,1,0.7c-0.9,1.2-1.8,2.4-2.7,3.6c-2.6-1.9-5.3-3.8-8-5.7C188.8,56.6,189.6,55.4,190.4,54.1z"/>
	<path d="M210.5,69.9c0.4,0.4,0.7,0.9,1,1.3c2.5-2,5-4,7.5-6c-0.4-0.5-0.7-0.9-1.1-1.4c1.2-0.9,2.3-1.9,3.5-2.8c2,2.5,3.9,5,5.8,7.5
		c-1.1,3.9-2.4,7.7-3.7,11.5c0,0,0,0,0,0c1.4-1,2.9-2,4.3-3c-0.3-0.5-0.6-0.9-1-1.4c1.2-0.9,2.4-1.7,3.6-2.6
		c1.6,2.2,3.1,4.4,4.6,6.7c-1.2,0.8-2.5,1.6-3.7,2.5c-0.3-0.5-0.6-1-1-1.4c-4,2.7-8,5.4-11.9,8c-1.1-1.7-2.3-3.4-3.5-5
		c1.6-4.3,3-8.7,4.3-13.1c0,0,0,0,0,0c-1.7,1.3-3.5,2.6-5.2,4c0.3,0.4,0.7,0.9,1,1.4c-1.2,0.9-2.4,1.8-3.6,2.7c-1.5-2-3.1-4-4.7-6
		C208.2,71.7,209.4,70.8,210.5,69.9z"/>
	<path d="M230.4,85.1c0.8,1.5,1.5,1.7,3.1,0.9c-0.3-0.7-0.6-1.3-1-2c1.2-0.6,2.5-1.2,3.7-1.8c0.9,1.8,1.7,3.6,2.6,5.4
		c-1.5,0.7-3.1,1.4-4.6,2.1c-2.2,1-4.1,0-5.4-2.6c-0.2-0.4-0.4-0.8-0.4-1C229.1,85.7,229.8,85.4,230.4,85.1z"/>
	<path d="M228.2,94.7c0.5,1.4,0.9,2.7,1.4,4.1c-1.4,1.1-1.9,2.2-1.4,3.5c0.3,0.9,0.9,1.3,1.6,1.1c0.3-0.1,0.6-0.3,0.8-0.7
		c0.8-1.5,0.3-5,1.5-7.6c0.7-1.6,1.7-2.5,3.1-3c3.1-1.1,6.1,0.6,7.2,4.4c0.5,1.7,0.5,3.4,0,4.8c0.4-0.1,0.7-0.2,1.1-0.3
		c0.4,1.5,0.8,3,1.2,4.5c-1.7,0.4-3.4,0.9-5.1,1.3c-0.4-1.5-0.8-2.9-1.2-4.4c0.1,0,0.1-0.1,0.2-0.2c1.1-0.9,1.5-2,1.1-3.3
		c-0.3-0.9-0.9-1.3-1.5-1.1c-0.3,0.1-0.6,0.3-0.7,0.6c-0.5,1.1-0.3,5.6-1.9,8.4c-0.5,0.9-1.7,2.2-3.5,2.6c-3.1,0.8-6.1-1.2-7.1-4.5
		c-0.4-1.5-0.4-3.2,0.1-4.7c-0.4,0.1-0.8,0.3-1.2,0.4c-0.4-1.3-0.9-2.7-1.3-4C224.5,96.1,226.4,95.4,228.2,94.7z"/>
	<path d="M80.2,106c-1-1.7-2.4-2.5-5.6-3.4L61.9,99l0.6-2.4c-1.4-0.5-2.8-0.9-4.2-1.4c-1.3,4-2.5,8.1-3.4,12.2
		c1.4,0.3,2.9,0.7,4.3,1l0.6-2.2l12.8,3.6c2.2,0.6,2.8,1,2.4,2.1c-0.1,0.2-0.2,0.5-0.3,0.8l4.6,1.3c0.5-1.1,0.7-1.6,1-2.8
		C81,109.1,81.1,107.7,80.2,106z"/>
	<path d="M162.7,54.9c1.6-1.2,2.2-2.7,2.6-6l1.9-13l2.4,0.3c0.3-1.5,0.6-2.9,0.9-4.4c-4.2-0.8-8.3-1.4-12.6-1.9
		c-0.1,1.5-0.3,3-0.4,4.4l2.2,0.4l-2,13.1c-0.3,2.3-0.6,2.9-1.8,2.7c-0.2,0-0.5-0.1-0.8-0.2l-0.7,4.8c1.2,0.4,1.7,0.5,2.9,0.7
		C159.7,56.2,161.1,56.1,162.7,54.9z"/>
</g>
</svg>
