<?xml version="1.0" encoding="utf-8"?>
<!-- Generator: Adobe Illustrator 24.1.2, SVG Export Plug-In . SVG Version: 6.00 Build 0)  -->
<svg version="1.1" xmlns="http://www.w3.org/2000/svg" xmlnsXlink="http://www.w3.org/1999/xlink" x="0px" y="0px" viewBox="0 0 330 100"
	 style="enable-background:new 0 0 330 100;" xmlSpace="preserve">
<style type="text/css">
	.st0{fill:#FFFFFF;}
</style>
<g transform="matrix(1.25,0,0,-1.25,119.25316,185.06493)">
	<path class="st0" d="M34.2,86.9h1.6l8.1-11.1v11.1h1.4V73.4h-1.3l-8.3,11.5V73.4h-1.4C34.2,73.4,34.2,86.9,34.2,86.9z"/>
</g>
<g transform="matrix(1.25,0,0,-1.25,127.40054,185.06493)">
	<path class="st0" d="M42.1,86.9h8.9v-1.4h-7.5v-4.5h7.3v-1.4h-7.3v-5h7.6v-1.3h-9C42.1,73.4,42.1,86.9,42.1,86.9z"/>
</g>
<g transform="matrix(1.25,0,0,-1.25,136.50116,185.83455)">
	<path class="st0" d="M51,86.2h-5.1v1.4h11.6v-1.4h-5.1V74H51C51,74,51,86.2,51,86.2z"/>
</g>
<g transform="matrix(1.25,0,0,-1.25,141.14891,185.06493)">
	<path class="st0" d="M55.6,86.9H57l3.6-11.2l3.6,11.2h1.2l3.6-11.2l3.6,11.2H74l-4.3-13.6h-1.2l-3.6,11.2l-3.6-11.2h-1.3
		C59.9,73.3,55.6,86.9,55.6,86.9z"/>
</g>
<g>
	<g transform="translate(133.1884,728.1357)">
		<path class="st0" d="M117.3-643.2c0-4.6-2.1-7-6.7-7c-4.6,0-6.7,2.5-6.7,7c0,4.6,2.1,7,6.7,7C115.2-636.2,117.3-638.7,117.3-643.2
			 M102.1-643.3c0-6,3.1-8.7,8.5-8.7c5.4,0,8.5,2.7,8.5,8.7c0,6-3.1,8.7-8.5,8.7C105.2-634.5,102.1-637.2,102.1-643.3"/>
	</g>
	<g transform="translate(137.7932,728.1683)">
		<path class="st0" d="M125.5-643.4c2.4,0,3.9-0.7,3.9-3.4c0-2.6-1.4-3.3-3.9-3.3h-5.5v6.7H125.5z M125-641.7h-5.1v6.9h-1.8v-16.9
			h7.3c3.9,0,5.7,1.6,5.7,4.9c0,2.9-1.4,4.6-4.3,5l4.1,7H129C129-634.8,125-641.7,125-641.7z"/>
	</g>
	<g transform="translate(143.0629,728.3242)">
		<path class="st0" d="M134.9-644l-3.4,3.7v5.3h-1.8v-16.9h1.8v9.3l8.5-9.3h2.1l-6.1,6.6l6.9,10.3h-2L134.9-644z"/>
	</g>
	<g transform="translate(146.5105,725.714)">
		<path class="st0" d="M141-634.1l0.9-1.4c2,1.3,4,1.7,6,1.7c3.5,0,5-1,5-3.3c0-2.4-2-2.7-5-3.3c-3.6-0.6-6.1-1.3-6.1-4.7
			c0-3.3,2.1-4.5,6.1-4.5c2.6,0,4.5,0.6,5.9,1.5l-1,1.5c-1.2-0.8-3-1.3-4.9-1.3c-3,0-4.3,0.8-4.3,2.8c0,2.1,1.8,2.6,4.8,3.1
			c3.7,0.7,6.4,1.2,6.4,4.8c0,3.4-2.1,5-6.7,5C145.4-632.2,143.1-632.7,141-634.1"/>
	</g>
	<g transform="translate(157.8189,756.3191)">
		<path class="st0" d="M161.1-749.7c-23.7,0-24.8,10.6-24.8,25.6v36.8h5.6V-724c0-11.3-0.4-20.4,19.2-20.4c2.1,0,4,0.1,5.6,0.3v-5.3
			C165-749.6,163.1-749.7,161.1-749.7"/>
	</g>
	<g transform="translate(58.0874,742.4452)">
		<path class="st0" d="M-16.1-697.3v-37.3h5.7v37.4c0,10.8-0.1,19.8,19.6,19.8c19.6,0,19.2-9.1,19.2-20.4v-36.8h5.6v36.8
			c0,15-1,25.6-24.8,25.6C-14.7-672.1-16.1-682.7-16.1-697.3"/>
	</g>
	<g transform="translate(97.5568,747.2451)">
		<path class="st0" d="M54-715.4v37.3h-5.7v-37.4c0-10.8,0.1-19.8-19.6-19.8c-19.6,0-19.2,9.1-19.2,20.4v36.8H3.9V-715
			c0-15,1-25.6,24.7-25.6C52.5-740.6,54-730,54-715.4"/>
	</g>
	<path class="st0" d="M162,8h5.5v61.1H162V8z"/>
	<g transform="translate(117.3098,743.4458)">
		<path class="st0" d="M89.1-701.1c9.9,0,14.8-4.8,14.8-14.6c0-9.7-5.3-14.4-15.1-14.4h-23v28.9C65.9-701.1,89.1-701.1,89.1-701.1z
			 M60.4-735.5H89c14.2,0,20.6,7.1,20.6,19.6c0,12.6-6.4,20.3-20.7,20.3H65.9v21.2h-5.5V-735.5z"/>
	</g>
</g>
<g transform="translate(129.0252,746.3982)">
	<path class="st0" d="M109.9-712.2h41.7c-0.6-12.2-1.3-22.6-19.2-22.6C115.3-734.8,110.6-725.5,109.9-712.2 M104.3-708.1
		c0-18,5.2-31.9,28.2-31.9c23.9,0,24.6,16,24.5,32.9h-47.3c0.1,14.9,3.8,26,23.2,26c10.3,0,15-2.8,20-6.5l3.1,4.1
		c-5.6,4.1-12.2,7.4-23.2,7.4C108.8-676,104.3-690,104.3-708.1"/>
</g>
<g transform="translate(45.7034,729.0357)">
	<path class="st0" d="M-38.1-646.6c23.7,0,24.8-10.6,24.8-25.6v-48.9H-19v48.9c0,11.3,0.4,20.4-19.2,20.4c-0.7,0-1.4,0-2.1,0v5.3
		C-39.6-646.7-38.9-646.6-38.1-646.6"/>
</g>
</svg>
