<?xml version="1.0" encoding="utf-8"?>
<!-- Generator: Adobe Illustrator 24.1.2, SVG Export Plug-In . SVG Version: 6.00 Build 0)  -->
<svg version="1.1" id="Layer_1" xmlns="http://www.w3.org/2000/svg" xmlnsXlink="http://www.w3.org/1999/xlink" x="0px" y="0px"
	 viewBox="0 0 308 37" style="enable-background:new 0 0 308 37;" xmlSpace="preserve">
<style type="text/css">
	.st0{fill-rule:evenodd;clip-rule:evenodd;fill:#FFFFFF;}
</style>
<desc>Created with Sketch.</desc>
<g id="Symbols">
	<g id="Header" transform="translate(-51.000000, -27.000000)">
		<g id="logo">
			<path class="st0" d="M201.8,30.8c0.5,0,1,0,1,0.4c0,0.3-0.3,0.4-0.8,0.4c-0.4,0-0.8,0-1.3,0.1c-1.2,0.3-1.5,1.2-1.6,3.6
				l-0.5,26.6c0,0.9-0.2,1.3-0.6,1.3c-0.5,0-1-0.5-1.4-0.9c-2.7-2.5-8.1-8.1-12.5-12.4c-4.6-4.6-9.3-9.8-10-10.6h-0.1l0.5,17.7
				c0.1,3.3,0.6,4.4,1.5,4.7c0.7,0.3,1.5,0.3,2.2,0.3c0.5,0,0.7,0.1,0.7,0.3c0,0.3-0.4,0.4-1,0.4c-2.7,0-4.4-0.1-5.2-0.1
				c-0.4,0-2.4,0.1-4.6,0.1c-0.5,0-0.9,0-0.9-0.4c0-0.3,0.3-0.3,0.7-0.3c0.5,0,1.3,0,1.9-0.2c1.1-0.3,1.3-1.6,1.3-5.2l0.4-25
				c0-0.8,0.1-1.4,0.5-1.4c0.5,0,0.8,0.6,1.6,1.3c0.5,0.6,6.9,7.4,13.1,13.6c2.9,2.9,8.6,9,9.3,9.6h0.2l-0.4-19
				c0-2.6-0.4-3.4-1.4-3.8c-0.6-0.3-1.6-0.3-2.2-0.3c-0.5,0-0.7-0.1-0.7-0.4c0-0.3,0.5-0.4,1.1-0.4c2.2,0,4.2,0.1,5.1,0.1
				C198.1,30.9,199.7,30.8,201.8,30.8z M222.7,46.8c1.3-0.9,2.5-2.9,2.5-6.3c0-6-4-7.7-6.5-7.7c-1.1,0-1.8,0-2.2,0.2
				c-0.3,0.1-0.4,0.3-0.4,0.6v12.8c0,0.5,0.1,0.6,0.4,0.8c0.9,0.3,2.2,0.4,3.2,0.4C221.4,47.5,222,47.4,222.7,46.8z M239.7,61.9
				c0.3,0,0.5,0.1,0.5,0.3c0,0.3-0.3,0.4-0.8,0.4h-4c-2.4,0-3.4-0.2-4.5-0.8c-1.8-1-3.4-3-5.8-6.2c-1.7-2.3-3.6-5.2-4.2-5.8
				c-0.2-0.3-0.5-0.3-0.8-0.3l-3.7-0.1c-0.2,0-0.3,0.1-0.3,0.3v0.6c0,3.9,0,7.3,0.2,9c0.1,1.2,0.4,2.2,1.6,2.3
				c0.6,0.1,1.6,0.2,2.1,0.2c0.3,0,0.5,0.1,0.5,0.3c0,0.3-0.3,0.4-0.8,0.4c-2.4,0-5.6-0.1-6.2-0.1c-0.8,0-3.5,0.1-5.2,0.1
				c-0.5,0-0.8-0.1-0.8-0.4c0-0.2,0.2-0.3,0.7-0.3c0.6,0,1.1-0.1,1.5-0.2c0.8-0.2,1.1-1.1,1.2-2.3c0.2-1.8,0.2-5.1,0.2-9V43
				c0-6.4,0-7.6-0.1-9c-0.1-1.4-0.4-2.1-1.8-2.4c-0.3-0.1-1.1-0.1-1.6-0.1c-0.5,0-0.7-0.1-0.7-0.4c0-0.3,0.3-0.4,0.9-0.4
				c2.2,0,4.9,0.1,5.8,0.1c1.4,0,4.6-0.1,6-0.1c2.7,0,5.5,0.3,7.8,1.8c1.2,0.8,2.9,3,2.9,5.8c0,3.1-1.3,6-5.6,9.5
				c3.8,4.7,6.7,8.5,9.2,11.1c2.4,2.4,4.1,2.7,4.7,2.9C239,61.9,239.4,61.9,239.7,61.9z M301,30.8c0.5,0,0.9,0.1,0.9,0.4
				c0,0.3-0.3,0.4-0.7,0.4s-1.3,0-2.1,0.5c-0.6,0.4-1.2,1.1-2.3,3.8c-1.6,4-2.8,6.2-5.1,11.4c-2.7,6.2-4.7,10.8-5.6,12.9
				c-1.1,2.4-1.3,3.1-1.9,3.1c-0.5,0-0.8-0.6-1.6-2.6l-10.6-25.8c-1-2.3-1.7-2.8-3.2-3.2c-0.6-0.2-1.3-0.2-1.6-0.2
				c-0.4,0-0.5-0.1-0.5-0.4c0-0.3,0.5-0.4,1.1-0.4c2.2,0,4.6,0.1,6.1,0.1c1.1,0,3.1-0.1,5.2-0.1c0.5,0,1,0.1,1,0.4
				c0,0.3-0.3,0.4-0.6,0.4c-0.7,0-1.3,0-1.6,0.3c-0.3,0.2-0.4,0.5-0.4,0.9c0,0.6,0.4,1.7,1,3.3l7.3,19.2h0.2
				c1.8-4.6,7.3-18.2,8.3-21c0.2-0.5,0.4-1.2,0.4-1.6c0-0.3-0.2-0.7-0.5-0.8c-0.5-0.2-1.1-0.2-1.7-0.2c-0.4,0-0.7,0-0.7-0.3
				c0-0.3,0.4-0.4,1.2-0.4c2.1,0,3.9,0.1,4.4,0.1C297.7,30.9,299.7,30.8,301,30.8z M318.9,61.9c0.5,0,0.7,0.1,0.7,0.3
				c0,0.3-0.3,0.4-0.8,0.4c-2.8,0-5.4-0.1-6.6-0.1c-1,0-3.6,0.1-5.3,0.1c-0.6,0-0.8-0.1-0.8-0.4c0-0.2,0.2-0.3,0.7-0.3
				c0.6,0,1.1-0.1,1.5-0.2c0.8-0.2,1.1-0.9,1.2-2.1c0.2-1.8,0.2-5.1,0.2-9.2V43c0-6.4,0-7.6-0.1-9c-0.1-1.4-0.5-2.2-1.4-2.4
				c-0.5-0.1-1-0.2-1.5-0.2c-0.4,0-0.7-0.1-0.7-0.4c0-0.3,0.3-0.3,1-0.3c1.6,0,4.3,0.1,5.5,0.1c1.1,0,3.5-0.1,5.2-0.1
				c0.5,0,0.9,0.1,0.9,0.3c0,0.3-0.3,0.4-0.7,0.4c-0.4,0-0.8,0-1.3,0.1c-1.1,0.2-1.5,0.9-1.6,2.4c-0.1,1.4-0.1,2.5-0.1,9v7.4
				c0,4.1,0,7.4,0.2,9.2c0.1,1.1,0.4,1.9,1.7,2.1C317.3,61.9,318.3,61.9,318.9,61.9z M343.6,49.6c0.2,0,0.3-0.1,0.2-0.3l-3.8-10.4
				c0-0.2-0.1-0.4-0.2-0.4c-0.1,0-0.2,0.2-0.3,0.4l-3.9,10.4c0,0.2,0,0.3,0.2,0.3H343.6z M357.9,61.9c0.3,0,0.6,0,0.6,0.3
				c0,0.3-0.4,0.4-1.9,0.4c-1.5,0-4.6,0-8-0.1c-0.8,0-1.3,0-1.3-0.3c0-0.3,0.2-0.3,0.6-0.4c0.3-0.1,0.6-0.5,0.4-1l-3.4-9
				c-0.1-0.2-0.2-0.3-0.4-0.3H335c-0.2,0-0.3,0.1-0.4,0.3l-2.3,6c-0.4,1.1-0.6,2.1-0.6,2.6c0,0.8,0.4,1.3,1.7,1.3h0.6
				c0.5,0,0.6,0.1,0.6,0.3c0,0.3-0.3,0.4-0.7,0.4c-1.4,0-3.2-0.1-4.5-0.1c-0.5,0-2.8,0.1-5,0.1c-0.5,0-0.8-0.1-0.8-0.4
				c0-0.3,0.2-0.3,0.5-0.3c0.4,0,1,0,1.3-0.1c1.9-0.3,2.7-1.7,3.6-3.8l10.6-26.5c0.5-1.2,0.8-1.7,1.2-1.7c0.4,0,0.6,0.4,1.1,1.4
				c1,2.3,7.8,19.6,10.5,26c1.6,3.8,2.8,4.4,3.7,4.6C356.8,61.9,357.4,61.9,357.9,61.9z M353.6,31.9V33h1c0.2,0,0.3,0,0.4-0.1
				c0.2-0.1,0.3-0.2,0.3-0.5c0-0.3-0.1-0.4-0.3-0.5c-0.1,0-0.2-0.1-0.4-0.1H353.6z M353.6,33.7v1.7h-0.9v-4.2h2.1
				c0.3,0,0.5,0,0.7,0.1c0.2,0.1,0.3,0.2,0.4,0.3c0.1,0.1,0.2,0.2,0.2,0.4c0.1,0.1,0.1,0.3,0.1,0.4c0,0.2-0.1,0.4-0.2,0.6
				c-0.1,0.2-0.3,0.3-0.5,0.4c0.2,0.1,0.3,0.2,0.4,0.3c0.1,0.1,0.1,0.4,0.1,0.7v0.3c0,0.2,0,0.3,0,0.4c0,0.1,0.1,0.2,0.2,0.2v0.1h-1
				c0-0.1,0-0.2-0.1-0.2c0-0.1,0-0.2,0-0.4l0-0.4c0-0.3-0.1-0.5-0.1-0.5s-0.3-0.1-0.5-0.1H353.6z M354.4,29.8
				c-1.9,0-3.5,1.6-3.5,3.5c0,1.9,1.5,3.5,3.5,3.5c1.9,0,3.5-1.6,3.5-3.5C357.9,31.4,356.3,29.8,354.4,29.8z M354.4,37.3
				c-2.2,0-4-1.8-4-4c0-2.2,1.8-4,4-4c2.2,0,4,1.8,4,4C358.5,35.5,356.7,37.3,354.4,37.3z M135.3,61.9c0.4,0,0.7,0,0.7,0.3
				c0,0.3-0.5,0.5-1.1,0.5c-1.1,0-6.9-0.1-8.6-0.3c-1-0.1-1.2-0.2-1.2-0.5c0-0.2,0.2-0.3,0.5-0.5c0.3-0.1,0.4-0.6,0.2-1.8l-2.5-18.6
				H123l-9.2,19.2c-1,2-1.2,2.4-1.6,2.4c-0.4,0-0.8-0.8-1.5-2.1c-1-1.9-4.4-8.4-4.9-9.6c-0.4-0.9-2.9-6.2-4.4-9.4h-0.2l-2.2,16.8
				c-0.1,0.8-0.1,1.3-0.1,2c0,0.8,0.5,1.2,1.3,1.4c0.8,0.2,1.4,0.2,1.8,0.2c0.3,0,0.6,0.1,0.6,0.3c0,0.4-0.4,0.5-1,0.5
				c-1.8,0-3.7-0.1-4.4-0.1c-0.8,0-2.8,0.1-4.2,0.1c-0.4,0-0.8-0.1-0.8-0.5c0-0.2,0.3-0.3,0.7-0.3c0.3,0,0.6,0,1.3-0.1
				c1.2-0.3,1.5-1.9,1.7-3.3l4.2-27.5c0.1-0.7,0.4-1.1,0.7-1.1c0.3,0,0.6,0.2,1.1,1.3L113.6,55l11.5-24.1c0.3-0.7,0.5-1,0.9-1
				c0.4,0,0.6,0.4,0.8,1.3l3.8,26.1c0.4,2.7,0.8,3.9,2.1,4.3C133.9,61.9,134.7,61.9,135.3,61.9z M151.3,55.7c2.4,0,7.8-1.2,7.8-10.9
				c0-7.6-4.4-12.3-9.9-12.3c-3.9,0-8.3,2.2-8.3,10.6C140.9,50.1,144.8,55.7,151.3,55.7z M150.2,30.9c8.4,0,13.6,4.9,13.6,12.6
				c0,7.7-5.4,13.8-14,13.8c-9.7,0-13.6-7.3-13.6-13.2C136.2,38.4,140,30.9,150.2,30.9z M253.1,55.7c2.4,0,7.8-1.2,7.8-10.9
				c0-7.6-4.4-12.3-9.9-12.3c-3.9,0-8.3,2.2-8.3,10.6C242.7,50.1,246.6,55.7,253.1,55.7z M252,30.9c8.4,0,13.6,4.9,13.6,12.6
				c0,7.7-5.4,13.8-14,13.8c-9.7,0-13.6-7.3-13.6-13.2C238,38.4,241.8,30.9,252,30.9z M71.1,43.6C70.9,33,83.8,33,85.3,30.8
				c0.2,2.6-0.6,8.1-3.1,10.8c-3.6,4-9.7,4.5-10.3,4.1c1.9-3.9,6.3-6.1,7.8-7.2c3.8-2.9,3.8-4.3,3.8-4.3c-5.1,4-8.3,3.9-12.1,9.4
				C71.3,43.7,71.1,43.7,71.1,43.6z M63.3,54c-1.8,1.8-2,2.2-3.2,3.3c11.7-2.8,14.4,4.8,23.3,4.6c-5.1,1.7-9.6,0.7-13.5-1
				c-3.7-1.6-8.9-1.4-18.1,1c-0.6,0.1-1.5-1.9-0.4-2.7c0.9-0.4,4.3-1.1,4.9-2.9c0.9-2.4-2.5-4.8-3.4-8.5c-0.8-3.2-0.4-7,2.8-8.8
				c0,4.4,5.2,5.9,5.2,9.6c0,2.8-2.1,4.1-2.6,4.4c0,0-0.1,0-0.1-0.1c1-5.2-3.1-6.1-3.4-10.1c-2.2,4.3,1.6,5.2,2,8.7
				c0.3,2.4,0.3,3.9,2,4.1c0,0,0,0,0,0c4.6-3.9,9.2-9.4,8.9-16.6c0-0.8,1.1-1,1.2-0.2c0.4,3-0.2,7.1-3,11.7
				c-0.1,0.2-0.2,0.4-0.3,0.5c1,0.9,2.6-0.6,5.7-0.6c4,0,8.6,2.8,10.3,4.6c-2.2-4.6-5.9-6.7-12.5-6c-0.2,0-0.2-0.1-0.1-0.2
				c2.5-2,9.7-2,12.5,0.5c3.8,3.4,1.6,6.1,2.6,9.1c-3.1-1.9-5.5-0.8-8.4-1.6c-3-0.8-4-4.4-6-4.7C67.8,51.7,64.6,52.7,63.3,54z
				 M63.8,32.7c-1.5,1.2-1.1,3.2,0.2,3.8c1.1,0.5,3.5-0.7,3.3-2.6C67.2,32.3,65.1,31.7,63.8,32.7z M58.4,34.8
				c-1.3-0.5-2.4-2.8-0.7-4.1c2-1.6,2.8,0.9,5.2,0.1c1.7-0.6,2.5-5.5,6.3-3.2c1.9,1.1-0.1,3.3,0.9,4.9c0.9,1.4,2.6-0.7,3.6,1.1
				c1.3,2.4-2.1,3.5-4.9,2.9c-2.1-0.4-2.6,1.3-2.9,2.9c-0.3,1.8-2.5,3-4,2.3c-1.3-0.6-1.4-2.2-0.9-4.2
				C61.5,35.5,59.7,35.3,58.4,34.8z"/>
		</g>
	</g>
</g>
</svg>
