<?xml version="1.0" encoding="utf-8"?>
<!-- Generator: Adobe Illustrator 24.1.2, SVG Export Plug-In . SVG Version: 6.00 Build 0)  -->
<svg version="1.1" xmlns="http://www.w3.org/2000/svg" xmlnsXlink="http://www.w3.org/1999/xlink" x="0px" y="0px" viewBox="0 0 377 178.7"
	 style="enable-background:new 0 0 377 178.7;" xmlSpace="preserve">
<style type="text/css">
	.st0{fill:#FFFFFF;}
</style>
<g transform="matrix(1.25 0 0 -1.25 0 178.73)">
	<g>
		<path class="st0" d="M6.4,17.6c-3.2,0-5-2.1-5-4.4V6.2c0-2.3,1.5-4.4,4.5-4.4c1.4,0,2.6,0.6,3.2,1.8l0.4-1.4h1.8v7.7H6.5V7.7h1.8
			V6.1c0-0.8-0.6-1.6-1.8-1.6c-1.2,0-1.8,0.8-1.8,1.6v7.1c0,0.8,0.6,1.6,1.7,1.6c1.2,0,1.7-0.7,1.7-1.6v-1.2h3.1v1.1
			C11.3,15.6,9.6,17.6,6.4,17.6L6.4,17.6z M20.3,17.6c-3.1,0-5-1.9-5-4.6V6.4c0-2.7,1.9-4.6,5-4.6c3.1,0,4.9,1.9,4.9,4.6V13
			C25.3,15.7,23.5,17.6,20.3,17.6z M150.7,17.6c-3.2,0-5-2.1-5-4.4V6.2c0-2.3,1.5-4.4,4.5-4.4c1.4,0,2.6,0.6,3.2,1.8l0.4-1.4h1.8
			v7.7h-4.8V7.7h1.8V6.1c0-0.8-0.6-1.6-1.8-1.6c-1.2,0-1.8,0.8-1.8,1.6v7.1c0,0.8,0.6,1.6,1.7,1.6c1.2,0,1.7-0.7,1.7-1.6v-1.2h3.1
			v1.1C155.5,15.6,153.9,17.6,150.7,17.6L150.7,17.6z M190.3,17.6c-3.1,0-4.7-2.1-4.7-4.4c0-2.3,1.9-3.5,3.7-4.5
			c1.7-0.9,2.6-1.6,2.6-2.6c0-1-0.6-1.7-1.7-1.7c-1.2,0-1.8,0.7-1.8,1.9v0.5h-3V6.1c0-2.6,1.9-4.3,4.8-4.3c3,0,4.8,2.1,4.8,4.6
			c0,2.2-1.5,3.4-3.6,4.5c-1.9,1-2.8,1.6-2.8,2.6c0,0.9,0.6,1.5,1.6,1.5c1.1,0,1.7-0.8,1.7-1.8v-0.5h2.9v0.6
			C194.9,15.8,193,17.6,190.3,17.6L190.3,17.6z M295.1,17.6c-3.1,0-4.7-2.1-4.7-4.4s1.9-3.5,3.7-4.5c1.7-0.9,2.6-1.6,2.6-2.6
			c0-1-0.6-1.7-1.7-1.7c-1.2,0-1.8,0.7-1.8,1.9v0.5h-3V6.1c0-2.6,1.9-4.3,4.8-4.3c3,0,4.8,2.1,4.8,4.6c0,2.2-1.5,3.4-3.6,4.5
			c-1.9,1-2.8,1.6-2.8,2.6c0,0.9,0.6,1.5,1.6,1.5c1.1,0,1.7-0.8,1.7-1.8v-0.5h2.9v0.6C299.7,15.8,297.8,17.6,295.1,17.6L295.1,17.6z
			 M29.5,17.2V6c0-2.5,2.1-4.2,4.9-4.2c2.9,0,4.8,1.7,4.8,4.2v11.2h-3.1V6.1c0-1-0.6-1.6-1.7-1.6c-1.1,0-1.6,0.6-1.6,1.6v11.2H29.5z
			 M43.7,17.2V2.2H47v6.1h1.7c0.9,0,1.3-0.7,1.3-1.5V4.4c0-1.4,0.5-2.3,1.8-2.3h1.9v1c-0.4,0.4-0.6,0.8-0.6,1.5V7c0,1-0.7,2.2-2,2.5
			c1.4,0.4,1.9,1.3,1.9,2.5v1.6c0,2.2-1.5,3.6-3.9,3.6L43.7,17.2L43.7,17.2z M57.4,17.2V2.2h2.9v10.7L61,9.4l1.7-7.3h2.4L67,9.4
			l0.7,3.4V2.2h3.1v15.1h-4.3l-1.8-7.7l-0.6-2.6l-0.5,2.6l-1.8,7.7C61.8,17.2,57.4,17.2,57.4,17.2z M75.2,17.2V2.2h8.4V5h-5.2v3.8
			H82v2.4h-3.6v3.3h5.2v2.7L75.2,17.2L75.2,17.2z M86.8,17.2v-2.8H90V2.2h3.2v12.3h3.2v2.8H86.8z M104.4,17.2V2.2h5.6
			c2.4,0,3.8,1.3,3.8,3.5v1.4c0,1.4-0.6,2.5-2.2,2.8c1.5,0.3,2.1,1.4,2.1,2.8v1.1c0,2.1-1.3,3.5-3.8,3.5H104.4L104.4,17.2z
			 M118,17.2V6c0-2.5,2.1-4.2,4.9-4.2c2.9,0,4.8,1.7,4.8,4.2v11.2h-3.1V6.1c0-1-0.6-1.6-1.7-1.6c-1.1,0-1.7,0.6-1.7,1.6v11.2H118
			L118,17.2z M132.2,17.2V2.2h3.2v6.1h1.7c0.9,0,1.3-0.7,1.3-1.5V4.4c0-1.4,0.5-2.3,1.8-2.3h1.9v1c-0.4,0.4-0.6,0.8-0.6,1.5V7
			c0,1-0.7,2.2-2,2.5c1.4,0.4,2,1.3,2,2.5v1.6c0,2.2-1.5,3.6-3.9,3.6L132.2,17.2L132.2,17.2z M159.8,17.2V2.2h8.4V5H163v3.8h3.6v2.4
			H163v3.3h5.2v2.7L159.8,17.2L159.8,17.2z M172.2,17.2V2.2h3.2v6.1h1.7c0.9,0,1.3-0.7,1.3-1.5V4.4c0-1.4,0.5-2.3,1.8-2.3h1.9v1
			c-0.4,0.4-0.6,0.8-0.6,1.5V7c0,1-0.7,2.2-2,2.5c1.4,0.4,1.9,1.3,1.9,2.5v1.6c0,2.2-1.5,3.6-3.9,3.6L172.2,17.2L172.2,17.2z
			 M232.9,17.2V2.2h5.6c2.4,0,3.8,1.3,3.8,3.5v1.4c0,1.4-0.6,2.5-2.2,2.8c1.5,0.3,2.1,1.4,2.1,2.8v1.1c0,2.1-1.3,3.5-3.8,3.5H232.9
			L232.9,17.2z M246.4,17.2V2.2h3.2v6.1h1.7c0.9,0,1.3-0.7,1.3-1.5V4.4c0-1.4,0.5-2.3,1.8-2.3h1.9v1c-0.4,0.4-0.6,0.8-0.6,1.5V7
			c0,1-0.7,2.2-2,2.5c1.4,0.4,1.9,1.3,1.9,2.5v1.6c0,2.2-1.5,3.6-3.9,3.6L246.4,17.2L246.4,17.2z M260.1,17.2V2.2h8.4V5h-5.2v3.8
			h3.6v2.4h-3.6v3.3h5.2v2.7L260.1,17.2L260.1,17.2z M271.5,17.2l3.2-15.1h2.9l1.9,8.8l1.8-8.8h2.9l3.2,15.1h-3l-1.7-9.9l-1.8,9.9
			h-2.5l-1.9-9.9l-1.6,9.9H271.5L271.5,17.2z M204.2,16L202,6.8h1.9l0.4,1.8h1.9l0.4-1.8h2l-2.1,9.2H204.2L204.2,16z M210.6,16V6.8
			h1.8V12l0.8-1.5l2-3.7h1.5V16H215v-5.3l-0.7,1.5l-2,3.8H210.6z M219.5,16V6.8h3.1c1.9,0,2.9,1.1,2.9,2.6v3.8c0,1.5-1,2.8-2.9,2.8
			L219.5,16L219.5,16z M20.3,14.9c1.1,0,1.7-0.7,1.7-1.7v-7c0-1-0.6-1.7-1.7-1.7c-1.1,0-1.7,0.7-1.7,1.7v7
			C18.7,14.2,19.3,14.9,20.3,14.9z M47,14.7h1.8c0.8,0,1.2-0.5,1.2-1.2v-1.6c0-0.9-0.5-1.3-1.3-1.3H47C47,10.6,47,14.7,47,14.7z
			 M107.7,14.7h1.8c0.8,0,1.2-0.5,1.2-1.2v-1.3c0-0.9-0.5-1.3-1.3-1.3h-1.7V14.7z M135.4,14.7h1.8c0.8,0,1.1-0.5,1.1-1.2v-1.6
			c0-0.9-0.4-1.3-1.3-1.3h-1.7L135.4,14.7L135.4,14.7z M175.4,14.7h1.8c0.8,0,1.2-0.5,1.2-1.2v-1.6c0-0.9-0.5-1.3-1.3-1.3h-1.7V14.7
			z M236.1,14.7h1.8c0.8,0,1.1-0.5,1.1-1.2v-1.3c0-0.9-0.4-1.3-1.3-1.3h-1.7V14.7z M249.7,14.7h1.8c0.8,0,1.2-0.5,1.2-1.2v-1.6
			c0-0.9-0.4-1.3-1.3-1.3h-1.7L249.7,14.7L249.7,14.7z M221.5,14.4h0.9c0.8,0,1.1-0.4,1.1-1.2V9.6c0-0.7-0.3-1.2-1.1-1.2h-0.9V14.4z
			 M205.3,13.4l0.6-3.4h-1.4L205.3,13.4z M107.7,8.6h1.7c0.8,0,1.3-0.4,1.3-1.3V5.9c0-0.7-0.3-1.2-1.2-1.2h-1.9L107.7,8.6L107.7,8.6
			z M236.1,8.6h1.7c0.8,0,1.3-0.4,1.3-1.3V5.9c0-0.7-0.3-1.2-1.2-1.2h-1.9L236.1,8.6L236.1,8.6z M202,4.4V2.3h23.1v2.1H202L202,4.4z
			"/>
		<path class="st0" d="M42,106.6c-0.6,0-1.2,0-1.8,0c-8.9-0.5-18.4-4.4-22.9-7.1c-4.5-2.7-6.1-4.7-5.7-6.3c0.4-1.6,1.9-2.9,2.7-3.5
			c0,0,7.6,5.7,14.9,7.9c5.7,1.7,10.8,1.7,14.6-1.4c3.8-3.1,3.9-9.2,2.5-12.8c-1.4-3.6-6.3-14.1-20.8-15.4c2.4,8.4,5,14.4,6.4,17
			c1.4,2.6-0.3,3.9-0.8,4.2c-0.5,0.4-1.4,0.8-3.8-0.3c-2.4-1.1-8.3-4.3-9.2-5.2c-0.5-0.5-1.4-1.7-2-3.7c-0.6-2-11.6-37.5-12-39
			c-0.4-1.5-1.2-3.3-0.8-4.1c0.4-0.7,1.6-1.8,3.6-1.5c2,0.3,8.6,2,9.5,2.4s1.8,0.8,2.2,2.8c0.4,1.9,5.2,22,5.2,22s1.8-6.8,2.8-9.8
			c1-3,3.8-11.1,6.1-14.7c2.3-3.6,4.2-7.4,7.3-6.9c3.1,0.5,6.7,2.4,8.6,5.2c1.9,2.8-0.5,5.3-1.4,6.5c-1,1.2-7.4,8.6-11,20
			c5.6,1,14.9,5.1,19.5,10.9c5.1,6.3,7.7,13.3,4.4,20.8C57.1,101.5,50.7,106.4,42,106.6L42,106.6z M168.4,106.6c-0.6,0-1.2,0-1.8,0
			c-8.9-0.5-18.4-4.4-22.9-7.1c-4.5-2.7-6.1-4.7-5.7-6.3c0.4-1.6,1.9-2.9,2.7-3.5c0,0,7.6,5.7,14.9,7.9c5.7,1.7,10.9,1.7,14.6-1.4
			c3.8-3.1,3.9-9.2,2.5-12.8c-1.4-3.6-6.3-14.1-20.8-15.4c2.4,8.4,5,14.4,6.4,17c1.4,2.6-0.3,3.9-0.8,4.2c-0.5,0.4-1.4,0.8-3.8-0.3
			c-2.4-1.1-8.3-4.3-9.2-5.2c-0.5-0.5-1.4-1.7-2-3.7c-0.6-2-11.6-37.5-12-39c-0.4-1.5-1.2-3.3-0.8-4.1c0.4-0.7,1.6-1.8,3.6-1.5
			c2,0.3,8.6,2,9.5,2.4c1,0.4,1.8,0.8,2.2,2.8c0.4,1.9,5.2,22,5.2,22s1.8-6.8,2.8-9.8c1-3,3.8-11.1,6.1-14.7
			c2.3-3.6,4.2-7.4,7.3-6.9c3.1,0.5,6.7,2.4,8.6,5.2c1.9,2.8-0.5,5.3-1.4,6.5s-7.4,8.6-11,20c5.6,1,14.9,5.1,19.5,10.9
			c5.1,6.3,7.7,13.3,4.4,20.8C183.5,101.5,177.1,106.4,168.4,106.6L168.4,106.6z M229.5,90.7c-2.1-0.1-4.4-0.9-5.7-1.3
			c-1.1-0.4-3.2-1.2-3.8-3.4c-2.6-10.5-10.1-40.7-11-42.9c-0.5-1.3,1-1.8,2.2-1.8c1.9-0.1,5.4-0.4,8.1,3.4c1.5-1.5,3.6-4.1,9.9-4.5
			c5.3-0.3,13,2.5,16.6,13.5c3.4,10.4-0.5,18.2-7.3,20.6c-6.7,2.3-11.8-2.8-12.3-3.5c1.8,4.5,5.1,13.2,6.7,17.4c0.2,1,0.2,2-1.6,2.5
			C230.9,90.7,230.2,90.7,229.5,90.7L229.5,90.7z M123.1,90.7c-2.2-0.1-4.7-0.9-5.9-1.3c-1.4-0.5-3.2-1.3-3.8-3.5
			c-0.8-2.7-4.1-17.2-4.1-17.2s-0.3,3.3-4,5.1c-3.7,1.8-10,1.2-14.6-2.3c-4.6-3.5-8.5-9.8-9.6-16.9c-1.1-7.1,1.5-11.8,5.5-13.5
			c3.9-1.7,10.8-1.9,15.8,3.5c0,0,0-2.8,3.5-3.4c3.4-0.6,4.5,0,4.8,0.8c0.5,1.2,15.5,43.9,15.8,45.1c0.3,1.1,1.1,2.8-1.3,3.4
			C124.6,90.7,123.9,90.7,123.1,90.7L123.1,90.7z M261.8,86.9c-3.3,0-6-2.3-6-5c0-2.8,2.7-5,6-5c3.3,0,6,2.2,6,5
			C267.8,84.7,265.1,86.9,261.8,86.9z M199.6,74.9c-3.4,0.1-6.9-0.8-8.8-1.7c-3.4-1.5-9.1-4.5-13.6-13.4c-2-3.9-2.4-7.3-2.1-9.9
			c0.3-2.9,1.9-6.6,5-8.2c1.9-0.9,4.7-1.6,8.4-1.3c8.9,0.8,14.5,4.6,18.9,11.8c4.5,7.5,4,16.4-0.4,20.3
			C205,74.1,202.3,74.8,199.6,74.9L199.6,74.9z M72.5,74.8c-0.4,0-0.8,0-1.2-0.1c-2.9-0.4-7.5-1.3-13.7-7.4c0,0-5.5-4.5-7.9-12.8
			c-2.4-8.3,2.2-11.7,3.9-12.6c1.7-1,7.3-3.1,15.2-0.6c7.8,2.5,8.4,6.2,8.8,8.1c0.4,1.9-0.2,3.6-1.9,2c-1.8-1.6-5.5-3.6-9-3.6
			c-3.5,0-6.2,1.7-6.1,6c8,1.7,12.2,2.7,15.8,4.8c3.6,2.1,5.5,6.6,4.5,11.1C79.9,73.8,75.5,74.9,72.5,74.8z M291.6,73.8
			c-3.6-0.2-7.6-2.6-11.2-6.9c0.4,1.8,0.7,2.9,0.9,4c0.2,0.9,0.2,2.8-2.5,2.2c-2.2-0.5-3.9-0.9-6-1.4c-1.6-0.4-2.8-0.9-3.4-3.1
			l-6.9-25.4c0,0-0.5-1.8,1.4-1.8h5.9c4.2,0,5.7,4.6,6.2,6.6c0.6,2.1,2.7,9.8,3.2,11.8c0.5,2,3.6,3.1,5.3,2.8c1.8-0.2,3.5-1.2,2.9-4
			c-0.6-2.7-2-9.3-2.2-10.5c-0.2-1.3-0.1-3.5,1.7-5.7c1.8-2.1,4.2-2.7,7-2.6c2.7,0.1,3.5,1.3,3,2.1c-0.9,1.7-1.3,3.4-0.8,5.7
			c0.5,2.3,2.5,10.3,3,13.1c0.5,2.9,1.8,8.9-2.9,11.7C294.9,73.5,293.3,73.9,291.6,73.8L291.6,73.8z M263.7,72.2
			c-0.3,0-0.6,0-0.9-0.1c-2.2-0.4-4.7-0.9-6.8-1.4c-1.6-0.4-2.6-0.9-3.2-3.1l-5.3-19.5c-1-3.9,2-6.6,3.8-6.6h4.2
			c1.7,0,2.3,0.8,2.5,1.8c1.1,3.9,7.3,26.6,7.3,26.6C265.5,70.7,265.5,72.2,263.7,72.2L263.7,72.2z M70.4,69.9c1.4,0,1.9-1.1,2-1.9
			c0.1-0.9-0.5-5-3.7-6.8c-4-2.2-7.5-2.3-7.5-2.3s0.7,3.1,2.8,6.2c1.9,2.8,3.7,4.5,5.6,4.8C69.9,69.9,70.1,69.9,70.4,69.9z
			 M102.2,68.3c1.2,0,2.3-0.4,3.1-1.3c1.4-1.4,0.7-4.1,0.7-4.1s-1.8-7.3-3.2-11c-1.3-3.7-4.3-4.1-6.3-3.6c-2.1,0.5-3,2-3.4,4.2
			c-0.4,2.3,0.2,6,1.2,8.4c1,2.5,3.4,5.9,5.5,6.8C100.7,68.2,101.4,68.4,102.2,68.3z M196.8,68.3c1,0.1,1.9-0.2,2.6-1.2
			c2.4-3,0.9-7.9,0.4-9.8c-0.5-1.9-3.2-8.7-7.8-8.6c-4.5,0-5.1,4.4-4.4,7.9c0.7,3.6,2.1,5.8,3.4,7.8
			C192.3,66.1,194.7,68.2,196.8,68.3z M231.6,68.1c1,0,2.1-0.5,3-1.6c2.9-3.5,2.1-10.1-0.4-14.7c-2.5-4.6-5.3-5.5-8-4.6
			c-2.7,0.8-3.5,4.1-3.2,6.5c0.3,2.3,2.1,8.2,3.1,10.5C226.9,66.1,229.3,68.2,231.6,68.1L231.6,68.1z"/>
		<path class="st0" d="M254,91.8c-13.7,11.6-31,22.5-50.9,31.5c-58.4,26.5-116.1,23.5-128.3-4.5c-5.3-12.2-1.2-27.3,10.1-42.6
			c0.5,0.4,1,0.8,1.5,1.2c2.4,1.8,5.1,3.1,8.1,3.9c-6,10.9-7.6,21.3-3.2,30c12.2,24.3,61.6,28.2,112.8,5.9
			c18.1-7.9,34.4-17.4,47.2-27.9C252,90.1,252.9,91,254,91.8"/>
	</g>
</g>
</svg>
