<?xml version="1.0" encoding="utf-8"?>
<!-- Generator: Adobe Illustrator 24.1.2, SVG Export Plug-In . SVG Version: 6.00 Build 0)  -->
<svg version="1.1" id="layer" xmlns="http://www.w3.org/2000/svg" xmlnsXlink="http://www.w3.org/1999/xlink" x="0px" y="0px"
	 viewBox="0 0 599.9 220.6" style="enable-background:new 0 0 599.9 220.6;" xmlSpace="preserve">
<style type="text/css">
	.st0{fill:#333333;}
	.st1{fill:#FFFFFF;}
</style>
<g>
	<path class="st0" d="M141.7,75.9l-31.6-46.8L91.8,44.8l-25.3-39L52.5,66c0,0-13.5-5.5-18.3,0.6s-1.9,66-1.9,66l-4.2,32.9
		l-11.6,40.8l136.2-1.6l1.2-101.7L141.7,75.9z"/>
	<path class="st0" d="M265.4,80l-22.2,18.7l0.6,86.4l20.9,19.9l34.5-0.3l20-18.2l0.3-88l-22.2-18.1L265.4,80z M288.6,181.4h-14.1
		v-79h14.1V181.4z M409.3,152l0.1,34.7l-24,18.4h-29l-22.2-18.8l-0.3-88l21-18l33.7,0.6L409,99.2l-0.4,28.7l-30.1-0.3l-0.3-23
		l-13.3-0.4l-1.1,76.1l13,0.4l0.7-29.1L409.3,152z M481.2,138.7l30,65.7l-32.6-0.4l-23.3-49l-0.6,49.8l-31.3,0.1l0.4-124.3h31.3
		l0.4,50.4l20.6-50.1h31.4L481.2,138.7z M596,80.2l-28,77.1v46.8l-31.5-0.1l0.1-47.2l-26.2-76h30.4l11.3,42.8l11.7-43.4L596,80.2
		L596,80.2z M229.2,98.7l-21.9-18.3l-54.4,0.3l1,123.6l31.3,0.3l0.1-49.5l12.8-0.1l0.3,49.6l30.4,0.3v-49.5L213.4,143l16-12.8
		L229.2,98.7z M197.9,132.2h-12.2v-29.4h12.2V132.2z"/>
	<path class="st1" d="M589.2,186.5c-5.9,0-10.7,4.8-10.7,10.8v0.1c0,5.9,4.8,10.7,10.7,10.7s10.7-4.8,10.7-10.8v-0.1
		C599.9,191.3,595.1,186.5,589.2,186.5 M598.3,197.3c0,5.1-4.1,9.2-9.1,9.2c-5.1,0-9.1-4-9.1-9.2v-0.1c0-5.1,4.1-9.2,9.1-9.2
		C594.3,188.1,598.3,192.1,598.3,197.3L598.3,197.3z M594.2,195.1c0-2.2-1.6-3.5-4.3-3.5h-5v11h2.3v-3.7h2.1l2.6,3.7h2.8l-2.9-4.1
		C593.3,198,594.2,196.7,594.2,195.1 M589.8,196.9h-2.5v-3.3h2.5c1,0,2.1,0.3,2.1,1.7C591.8,196.3,591.1,196.9,589.8,196.9
		 M262.8,77L240,96.8V188l22.8,19.8h37.6l22.2-19.9V96.7L299,76.9L262.8,77L262.8,77z M315.9,185.2l-18.1,16.2h-32.4l-18.7-16.3
		V99.6l18.7-16.2h31.1l19.4,16.3V185.2L315.9,185.2z M561.1,77l-8.8,35.2L543.5,77H513h-8.2h-31.4l-15.2,39.5V77h-38v130.9h38v-41.1
		l17.6,41h41.4l-32.9-69.4l24.1-51.6l24.8,70.6v50.5h38.1v-50.5L599.9,77H561.1z M477.2,137.9l-0.2,0.5l29.8,63.1h-26.6l-21.6-50.3
		h-7.2v50.3h-24.7v-118h24.7v50.6h7L478,83.5h24.6L477.2,137.9z M564.7,156.1l-0.1,45.4h-24.7v-45.2l-25.6-72.8h24l11.2,45h5.6
		l11.2-45h24L564.7,156.1z M182,134.8h19.8v-34.4H182V134.8z M188.7,106.9h6.4v21.5h-6.4V106.9z M271.4,184.5h19.8v-84.1h-19.8
		V184.5z M278.1,106.9h6.4V178h-6.4V106.9z M154.8,77c-4.4-5.2-9.8-9.5-15.9-12.8l-28.4-42l-17.7,19l-0.1-0.1L66.3,0L49.9,64.4
		c-4-1.4-7.5-1.4-8.5-1.4c-2.3-0.1-15.5-1.3-19.1,17.7c-3.5,18.4,0.5,24.4,2.2,34.4s1,15.9-6.5,18.1S5.6,129,5.3,122.1
		c-0.2-3.2-3.7-4.1-4.5-0.6s-4.3,19.2,14.1,26.3c5.5,2.1,10.1,1.5,13.9-0.5L13.3,208h137.4h38v-49.6h6.4V208h37.1v-54.4L218.5,143
		l13.7-10.4V96.9L209,77.1L154.8,77L154.8,77z M68.9,16l0.1,0.2l22.8,35.5l17.9-19.2l0.1,0.1l18.3,27.1
		c-14.8-4.2-30.3-1.4-44.9,11.5C74,79.6,70.1,91.8,68.4,99.6c-0.1,0.3-0.4,0.2-0.4-0.1c-0.4-18.4-6.1-27.6-12.1-32.1L68.9,16z
		 M117.3,68.8c-1.6,2.1-4.4,0.5-5.1,0.1s-2.1-1.8-5.2-2.4s-5.8-0.8-9.8-0.3s-7.6,2-7.6,2c6.3-5.4,17.8-5.5,20.6-5.4
		C112.9,62.9,120,64.8,117.3,68.8 M59.9,94c4.9,1.1,6.9,3.4,7,7.3c0,0-0.6-0.3-1.5-0.7c-3.6-1.4-5.9-1-9,0.1s-5-0.5-5.3-2.8
		C50.7,95.5,54.3,92.7,59.9,94 M50.8,87.2c-2.3-0.4-3.1-2.8-1.8-4.7c1.2-1.9,5.7-2.7,9.6-1.6c3.8,1,6.6,2.5,7.2,7.7
		c0,0-2.8-2-7.4-2.6C53.6,85.4,53.1,87.6,50.8,87.2 M61.4,76.6c0,0-2.9-1.5-6.3-1.8s-5.4,0.7-6.7,1.4c-1.3,0.7-4.2,1.2-4.4-2.4
		c-0.2-3.7,5.9-3.8,8.1-3.5C54.2,70.5,59.3,71.5,61.4,76.6 M39.9,64.6c2.4-0.2,6.4-0.5,11.2,2.5c0,0-1.8-0.3-4.3-0.2
		c-2.6,0-5.1,1.3-6,1.9s-3.7,1.7-4.3-0.7C35.8,65.8,37.5,64.8,39.9,64.6 M69.6,188c-3.2,5.5-8.8,10-15.3,13.4H21.5v-0.1l16.1-62.9
		c2.7-4.1,4.1-8,4.5-8.7c2.4,3.5,1.8,7.4,0.9,10.7c-0.9,3.2-4.6,15.8-5.9,18.9s-2.4,4.4-2.3,6.2c0.1,1.9,0.2,12.3,10.9,15.5
		c12.7,3.8,20.3-3.9,21.5-9c3.1-1.3,5.9-2.5,5.9-2.5S73.2,182,69.6,188 M83.6,125.3c0.2,1.3,0.3,2.5-0.7,2.6
		c-5.5,0.5-12.4,2.4-18.6,8.6c-6.1,6.1-9.7,15.4-11.9,23.7c0,0.2-0.2,0.4-0.3,0.5c-0.8,0.6-3.3,2.4-6.8,4.3
		c-0.2,0.1-0.4,0.1-0.5-0.1c-1.1-1.1-2.1-3.2-2.4-4c-0.1-0.2-0.1-0.4,0-0.7c0.5-1.3,2.3-6.4,3.3-9.3c1.1-3.3,3.6-11.6,3.5-17.3
		s-2.7-8.6-3.4-9.4s-1.1-1.7,0.1-3.3c2.1-2.6,3.6-4.9,4.4-6.6c0.7-1.7,0.5-2.9,0.7-4.2c0.2-1.2,1-1.9,1.4-2s2.9-0.9,6.7-0.6
		c3,0.3,6,1.2,7.1,1.6c0.3,0.1,0.7,0.1,1,0c1.8-0.6,8.1-2.5,13.2-0.9c3.4,1.1,5.2,2.2,5.3,3s-0.2,1-1.9,4.7
		C82,119.6,83.4,124,83.6,125.3 M89.1,99.5c-1.1,2.5-2.7,2.6-5.4,1.6c-2.8-1-5.2-1.5-8.6-1.1s-6,1.7-6,1.7c1-5.1,4.6-6.4,9.1-7.3
		C82.8,93.4,91.1,94.8,89.1,99.5 M92.7,87.7c-2.1-0.5-5-2.2-10.5-1.5c-5.4,0.7-9.2,2.5-9.2,2.5c1-4.4,5.3-6.7,9.8-7.5
		s12-0.8,13.3,1.9C97.4,85.8,94.8,88.2,92.7,87.7 M93.4,73.9c-7.3-0.1-12.6,2.2-12.6,2.2c3-5,9.5-5.9,14.9-6.5
		c5.4-0.5,13.4,0.8,10.8,5.7c-1.4,2.6-4.1,1.6-5.5,0.8S97.6,74,93.4,73.9 M150.7,196.1c-7.1-9.7-13.8-19.1-21.2-30.8
		c-9.2-14.6-21.9-33.1-23.8-40.4c21.7,4,26.8-11.8,28.6-16.1c-9.8-4.6-25.8-0.3-31.9,4.9c1-22.8,32.4-26.2,41-9.8
		c8.6,16.4-1.4,31.7-7.2,33.7s-10.6,0.1-12.4-5.2c-1.2-3.3-6.3-2.8-4.2,4c2.1,6.8,6.5,16.7,24.4,12c2.5-0.7,4.7-1.5,6.8-2.6
		L150.7,196.1L150.7,196.1z M225.6,129.3l-14.9,11.3v4.5l14.9,11.5v44.8h-23.8v-49.6H182v49.6h-24.7v-60.5
		c8.4-8,11.6-20.8,10.1-34.5c-0.9-8.4-3.7-16.2-7.9-23h47l19,16.3L225.6,129.3L225.6,129.3z M352.9,77l-22.6,19.9v91.3l24.6,19.8
		H387l25.5-19.7v-39.9h-37.3v29.7h-6.8V107h6.8v24.3h37.3V96.9l-22.8-19.8L352.9,77L352.9,77z M405.8,124.7h-23.9v-24.3h-20.2v84.1
		h20.2v-29.7h23.9v30.3l-21.2,16.3h-27.3L337,185.1V99.7l18.5-16.2h31.6l18.7,16.2L405.8,124.7L405.8,124.7z"/>
</g>
</svg>
