<?xml version="1.0" encoding="utf-8"?>
<!-- Generator: Adobe Illustrator 24.1.2, SVG Export Plug-In . SVG Version: 6.00 Build 0)  -->
<svg version="1.1" xmlns="http://www.w3.org/2000/svg" xmlnsXlink="http://www.w3.org/1999/xlink" x="0px" y="0px" viewBox="0 0 189.6 39.1"
	 style="enable-background:new 0 0 189.6 39.1;" xmlSpace="preserve">
<style type="text/css">
	.st0{fill:#FFFFFF;}
	.st1{fill:#FFFFFF;stroke:#009743;stroke-width:8.379274e-02;stroke-miterlimit:1.9999;}
</style>
<g transform="matrix(.5 0 0 .5 .71444 .93895)">
	<path class="st0" d="M43.8,7.8c-13-0.1-13.7,0-18,2.1c-1,0.5-2.1,1.1-2.5,1.4c-1.2,0.9-3.5,3.1-3.5,3.5c0,0.2-0.1,0.3-0.2,0.3
		c-0.4,0-2.2,3.4-2.2,4.1c0,0.3-0.1,0.6-0.1,0.7c-0.5,0.6-0.7,5.7-0.3,7.9c0.1,0.7,0.3,1.7,0.4,2.1c0.2,0.8,0.8,2.2,1.6,3.4
		c0.3,0.4,0.5,0.8,0.6,1c0.4,0.7,3.2,3.2,4.4,4c1.6,1.1,3.6,2.3,4.1,2.5c0.2,0.1,1.1,0.5,1.9,1c0.8,0.4,1.8,1,2.3,1.1
		c0.4,0.2,1.8,0.8,3.1,1.4c6.9,3.3,7.5,3.6,8.1,4.7c0.6,1,0.6,2.1,0.1,2.9c-0.2,0.3-0.5,0.6-0.7,0.6c-0.2,0-0.3,0.1-0.4,0.2
		c-0.1,0.2-14.3,0.1-21.4-0.1l-3.1-0.1v-3.7c0-3.1,0-3.7-0.3-3.7c-0.1,0-0.2,0.1-0.2,0.2c0,0.1-0.1,0.2-0.2,0.2
		c-0.2,0-2,1.4-2.2,1.8c-0.1,0.1-0.4,0.3-0.6,0.5c-0.3,0.1-0.9,0.7-1.5,1.1c-0.5,0.5-1.3,1.1-1.7,1.4c-0.4,0.3-0.8,0.6-0.8,0.7
		c-0.1,0.2-1.7,1.5-1.9,1.5c-0.1,0-0.4,0.3-0.7,0.6c-0.3,0.3-1.3,1.2-2.3,2c-1,0.8-1.9,1.6-2.1,1.7c-0.2,0.2-0.6,0.5-0.9,0.8
		c-0.3,0.2-1,0.8-1.6,1.3L0,59.7l1.1,1c0.6,0.5,1.1,1,1.2,1c0.1,0,0.7,0.5,1.4,1.2C4.4,63.5,5,64,5.2,64c0.1,0,0.3,0.1,0.4,0.3
		c0.1,0.2,0.6,0.6,1.1,1c0.5,0.4,1.1,0.9,1.3,1c0.2,0.2,0.8,0.7,1.4,1.2c0.6,0.5,1.4,1.1,1.8,1.4c0.4,0.3,1,0.8,1.3,1.1
		c0.3,0.3,0.9,0.8,1.2,1c0.4,0.2,1.1,0.8,1.7,1.4c0.6,0.5,1.1,0.9,1.2,0.9c0.1,0,0.4,0.2,0.6,0.5c0.8,1,0.8,0.8,0.8-3.3l0-3.8l0.8,0
		c0.4,0,4.8,0,9.7,0.1c6.2,0,8.9,0.1,8.9,0.2c0,0.2,5.2,0.1,7.9-0.2c2.1-0.2,4.7-0.7,5.1-1c0.1-0.1,0.6-0.3,1.2-0.5
		c0.6-0.2,1-0.4,1.1-0.5c0.2-0.2,1.4-0.8,1.6-0.8c0.1,0,0.5-0.2,0.8-0.5c0.3-0.3,0.9-0.8,1.2-1c0.7-0.6,2.5-2.8,3.1-3.9
		c0.5-1,1.4-3.6,1.6-5.2c0.5-3.1,0.2-7.2-0.8-9.7c-0.2-0.6-0.4-1.1-0.4-1.2c0-0.2-0.8-1.5-1.1-1.7c-0.1-0.1-0.5-0.6-1-1.2
		c-0.4-0.6-1-1.1-1.1-1.2c-0.3-0.2-0.6-0.4-1.7-1.4c-0.3-0.2-0.8-0.6-1.1-0.7c-0.3-0.2-0.9-0.5-1.2-0.8c-0.3-0.3-0.6-0.5-0.7-0.5
		c-0.1,0-0.5-0.3-1-0.6c-0.5-0.3-1-0.6-1.1-0.6c-0.3,0-1.6-0.7-1.7-0.9c0-0.1-0.2-0.1-0.3-0.1c-0.1,0-0.2-0.1-0.2-0.2
		c0-0.1-0.1-0.2-0.3-0.2S46.5,32.3,46,32c-2.7-1.4-4.1-2.1-4.3-2c-0.1,0-0.3-0.1-0.6-0.3c-0.3-0.2-0.7-0.4-0.9-0.4
		c-0.3-0.1-1.3-0.5-2.2-1.1c-0.9-0.5-2-1.1-2.4-1.3c-0.4-0.2-0.9-0.6-1.2-0.9c-0.5-0.5-0.5-0.6-0.5-1.7c0-1.1,0-1.2,0.6-1.7
		c0.3-0.3,0.8-0.5,1.1-0.5c0.3,0,5.5,0,11.6,0l11.1,0.1l0-7l0-7L56,8C54.9,7.9,49.5,7.9,43.8,7.8L43.8,7.8z M64.4,7.9l0.1,22.7
		c0,20.2,0.1,22.8,0.3,23.6c0.5,1.6,1,2.8,1.5,3.6c0.3,0.4,0.5,0.9,0.5,1c0,0.6,4.4,5.2,4.9,5.2c0.1,0,0.4,0.2,0.8,0.5
		c1.9,1.2,2.6,1.6,4.7,2.3c2.3,0.8,4.3,1.2,6.3,1.5c2.2,0.3,7.6,0.3,9.6,0c2.9-0.4,5.1-1,6.6-1.7c0.3-0.1,0.7-0.2,0.8-0.2
		c0.3,0,3-1.4,3.5-1.8c0.2-0.2,0.6-0.4,0.9-0.6c0.8-0.4,3.6-3,3.9-3.7c0.1-0.3,0.4-0.7,0.6-0.9c0.5-0.5,1.6-2.6,1.9-3.5
		c0.1-0.4,0.4-1.4,0.6-2.2l0.4-1.5l0-22.2l0-22.2h-8.8h-8.8V29c0,13.1-0.1,21.4-0.2,21.6c-0.2,0.5-1.3,1.8-1.6,1.8
		c-0.1,0-0.3,0.1-0.4,0.2c-0.6,0.6-2,0.9-4.4,0.9h-2.3l-1.3-0.6c-1.4-0.7-1.8-1-2.4-2.3l-0.4-0.7v-21v-21h-8.7L64.4,7.9L64.4,7.9z
		 M118,7.9v29.7v29.7l15.8,0c16.1,0,17.6-0.1,19.6-0.7c0.3-0.1,0.8-0.2,1-0.2c0.4,0,2-0.6,3.4-1.4c0.4-0.2,1.1-0.6,1.6-0.8
		c0.8-0.4,1.7-1.2,3.3-2.7c0.5-0.5,1.5-1.9,2-2.8c0.4-0.8,1.5-3.7,1.8-5.2c0.3-1.2,0.4-4.5,0.3-6c-0.1-1.2-0.8-3.9-1.1-4.3
		c-0.1-0.1-0.2-0.5-0.3-0.8c-0.3-1-2.3-3.4-3.7-4.5c-0.4-0.3-0.8-0.7-1-0.9c-0.2-0.2-0.7-0.5-1.1-0.7c-0.4-0.2-0.7-0.3-0.7-0.4
		c0-0.1,0.9-0.8,1.1-0.8c0.1,0,2.8-2.6,2.8-2.8c0-0.1,0.1-0.3,0.3-0.6c0.5-0.7,1.5-2.6,1.7-3.3c0.1-0.4,0.3-0.8,0.4-0.9
		c0.1-0.2,0.2-1.3,0.2-3.4c0-3,0-3.3-0.5-4.6c-0.5-1.6-1.7-4-2.3-4.8c-1.1-1.3-2.4-2.5-3.3-3.2c-1.3-0.9-3.7-2.1-5.4-2.6
		c-2.7-0.9-4.5-0.9-20.8-0.9L118,7.9L118,7.9z M135.3,20.7l4.7,0.1c5.1,0.1,5.1,0.1,6.3,1.1c1.3,1.1,1.8,3.6,1.3,6.3
		c-0.2,0.9-1.3,2.5-2.1,2.9c-0.7,0.4-0.9,0.4-5.4,0.4l-4.7,0.1v-5.4V20.7L135.3,20.7z M135.4,42.9c0.1,0,2.5,0,5.5,0l5.4,0.1
		l0.7,0.5c0.4,0.3,1,0.9,1.3,1.4l0.6,1l0,2.4c0,2.2,0,2.5-0.4,3.3c-0.2,0.5-0.5,0.9-0.6,0.9s-0.3,0.1-0.3,0.2
		c-0.1,0.4-1.3,1-2.1,1.2c-0.5,0.1-2.5,0.2-5.5,0.2h-4.7v-5.6C135.3,45.4,135.3,42.9,135.4,42.9L135.4,42.9z"/>
	<path class="st1" d="M357.5,0.3c-0.1,0.1-0.1,0.8-0.1,3.5l0,3.7l-6.7,0c-6.5,0-7.4,0.1-10.2,0.6c-2.4,0.4-5,2-6.6,3.9
		c-1.3,1.6-2.1,3.4-2.7,6.1c-0.1,0.3-0.2,3.6-0.2,7.4c-0.1,7.6-0.1,7.2-1.2,8.7c-0.9,1.2-3.3,2-5.7,2c-1.2,0-3.3-0.5-4-0.9
		c-0.9-0.6-1.9-1.6-2.1-2.1c-0.1-0.4-0.2-4.2-0.3-12.8l-0.1-12.3l-8.6,0l-8.6,0l0,13.1c0,7.2,0.1,13.6,0.2,14.2
		c0.2,1.3,0.9,3.7,1.4,4.8c1,2.2,3.4,4.9,5.6,6.4c0.5,0.4,1.1,0.8,1.3,1c0.2,0.2,0.5,0.3,0.8,0.4c0.2,0.1,0.7,0.3,1.1,0.5
		c0.8,0.4,3,1.3,4.1,1.7l0.8,0.2v8.5v8.5h8.7h8.7v-8.5v-8.5l1.4-0.5c2-0.7,5.9-2.7,7-3.5c1.3-1.1,3.5-3.3,4.1-4.2
		c0.8-1.2,1.9-3.7,2.2-4.9c0.5-1.8,0.6-4.1,0.6-9c0-2.6,0.1-4.9,0.1-5.2c0.2-0.6,1-0.7,5.2-0.7l3.8,0l0,3.6c0,2.2,0.1,3.6,0.2,3.6
		c0.1,0,0.2-0.1,0.2-0.2c0-0.1,0.1-0.2,0.2-0.2c0.1,0,0.8-0.5,1.5-1.2c0.7-0.6,1.3-1.2,1.4-1.2s0.6-0.4,1.1-0.9s1.3-1.1,1.6-1.3
		c0.3-0.2,1-0.8,1.6-1.3c0.6-0.5,1.1-0.9,1.1-0.9s0.5-0.4,1-0.8c1.1-1,4.3-3.6,5.2-4.3c0.4-0.3,1.1-0.9,1.6-1.4l0.9-0.9l-1.2-1.1
		c-0.6-0.6-1.2-1.1-1.4-1.1c-0.1,0-0.4-0.2-0.5-0.4c-0.2-0.2-0.8-0.7-1.3-1.2c-0.6-0.4-1.2-0.9-1.3-1.1c-0.2-0.2-1.1-1-2.1-1.8
		c-1-0.8-2-1.7-2.3-1.9c-0.3-0.3-0.6-0.5-0.6-0.5s-0.7-0.5-1.4-1.2c-0.7-0.6-1.3-1.2-1.4-1.2c-0.1,0-0.6-0.4-1.1-0.9
		c-0.5-0.5-1.3-1.1-1.7-1.4c-0.4-0.2-0.8-0.6-1-0.8C357.5,0.3,357.5,0.3,357.5,0.3L357.5,0.3z M272.4,6.1c-1,0-2.1,0-3.1,0.1
		c-3.3,0.3-6.6,0.9-8.5,1.7c-0.3,0.1-0.8,0.3-0.9,0.3c-0.4,0-2.8,1.2-3.6,1.9c-0.4,0.3-0.8,0.5-0.9,0.5c-0.1,0-0.5,0.2-0.8,0.5
		c-0.3,0.3-1,1-1.6,1.5c-0.6,0.5-1,1-1,1.1c0,0.1-0.3,0.5-0.6,0.9c-1.1,1.3-1.5,2-2.2,4C248,22,248,20.6,248,45.2v22h8.6h8.6v-8.5
		v-8.5h6.6h6.6v8.5v8.5h8.6h8.6V45.3c0-19,0-22.1-0.3-23.4c-0.4-2.3-1.8-5.8-2.6-6.6c-0.2-0.2-0.6-0.8-1-1.3
		c-0.4-0.5-0.9-1.1-1.1-1.3c-0.2-0.1-0.8-0.6-1.3-1.1c-0.5-0.5-1.1-0.9-1.2-1c-0.2-0.1-0.7-0.4-1.1-0.7c-1-0.7-2.7-1.6-3.7-1.8
		c-0.4-0.1-1.4-0.4-2.2-0.7C278.7,6.6,275.6,6.1,272.4,6.1L272.4,6.1z M242.7,7.9l-8.7,0l-8.7,0l-0.1,21.3l-0.1,21.3l-0.5,0.8
		c-0.6,1-0.7,1-1.9,1.5c-2,0.7-5.2,0.4-6.4-0.7c-0.2-0.2-0.6-0.7-0.7-1.1c-0.3-0.6-0.3-1.6-0.3-21.6c0-11.5,0-21.1-0.1-21.2
		c-0.1-0.2-1-0.3-8.6-0.3h-8.5v21c0,13.1-0.1,21.2-0.2,21.6c-0.4,1.5-1.8,2.4-3.9,2.7c-1.3,0.2-2.9,0-3.7-0.4
		c-0.3-0.1-0.6-0.3-0.7-0.3c-0.3,0-0.8-0.7-1.2-1.5c-0.3-0.7-0.3-1.5-0.4-21.7c0-11.5,0-21,0-21.2c0-0.2-1.8-0.2-8.6-0.2h-8.6v21.8
		c0,23.9,0,23.1,1,26.3c0.9,2.8,2.1,4.7,4.3,6.8c0.7,0.7,1.4,1.3,1.4,1.3c0.1,0,0.6,0.3,1.2,0.7c1.4,1,1.7,1.1,3.8,1.8
		c2.1,0.7,3.5,1.1,5.5,1.4h0c2,0.3,6.6,0.3,8.4,0c2.1-0.4,5.7-1.5,6.8-2.2c0.3-0.2,0.9-0.6,1.3-0.9c1.5-1.1,2-1.3,2.4-1
		c0.2,0.1,0.4,0.3,0.5,0.3c0.2,0.2,3.3,2,3.7,2.1c0.2,0.1,0.6,0.2,0.8,0.3c0.9,0.4,2.8,1,4.2,1.2c2,0.4,8,0.4,10.1,0
		c1.6-0.3,3.5-0.8,4.4-1.2c0.3-0.1,0.8-0.3,1.2-0.4c0.4-0.1,0.9-0.4,1.3-0.6s1.1-0.7,1.8-1.1c0.6-0.4,1.7-1.3,2.4-1.9
		c1.3-1.3,3.1-3.5,3.1-3.9c0-0.1,0.2-0.6,0.4-1c0.5-0.9,1.1-2.6,1.5-4.3c0.3-1.1,0.3-3.1,0.3-23.3L242.7,7.9L242.7,7.9z M271.1,21
		c0.4,0,0.9,0,1.5,0c1.7,0.1,2,0.1,3.1,0.6c1.7,0.7,1.9,1,2.4,2.4l0.4,1.2v5.6v5.6h-6.6h-6.6l0-5.9l0-5.9l0.4-0.9
		c0.5-1.1,0.8-1.3,2-1.9C268.9,21.2,269.8,21,271.1,21L271.1,21z"/>
</g>
</svg>
