<?xml version="1.0" encoding="utf-8"?>
<!-- Generator: Adobe Illustrator 24.1.2, SVG Export Plug-In . SVG Version: 6.00 Build 0)  -->
<svg version="1.1" id="图层_1" xmlns="http://www.w3.org/2000/svg" xmlnsXlink="http://www.w3.org/1999/xlink" x="0px" y="0px"
	 viewBox="0 0 606.6 504.6" style="enable-background:new 0 0 606.6 504.6;" xmlSpace="preserve">
<style type="text/css">
	.st0{fill:#FFFFFF;}
</style>
<g>
	<g>
		<path class="st0" d="M425.4,180.4l-91-157.6c-2.9-4.9-8.1-8-13.9-8h-31.7c-5.7,0-11,3.1-13.9,8l-91,157.6c-2.9,4.9-2.9,11,0,16
			l15.8,27.4c2.9,5,8.1,8,13.9,8h182c5.7,0,11-3,13.9-8l15.8-27.4C428.2,191.5,428.2,185.4,425.4,180.4 M348.1,195.7
			c-13.7,4.3-28.3,6.7-43.4,6.7c-15.1,0-29.7-2.3-43.4-6.6c-16-5-25.9-21.3-22.5-37.8c6.3-29.9,21.8-56.4,43.5-76.4
			c12.7-11.6,32-11.6,44.7,0c21.7,20,37.3,46.5,43.5,76.4C374,174.3,364.1,190.6,348.1,195.7"/>
	</g>
	<g>
		<path class="st0" d="M430.9,380.8l-55,108.1c-0.9,1.7-2.7,2.8-4.6,2.8h-18.1c-1.9,0-3.7-1.1-4.6-2.8l-54.9-108.1
			c-0.9-1.8-0.8-4,0.1-5.7l5.9-10.1c1.1-2,3.2-3.2,5.5-3.2h5.3c1.4,0,2.7,0.8,3.3,2l46.2,91.8c1,1.9,3.7,1.9,4.7,0l46.1-91.8
			c0.6-1.3,1.9-2,3.3-2h5.3c2.3,0,4.4,1.2,5.5,3.2l5.9,10.2C431.8,376.9,431.8,379,430.9,380.8"/>
	</g>
	<g>
		<path class="st0" d="M158.8,380.8l-54.9,108.1c-0.9,1.7-2.7,2.8-4.6,2.8H81.1c-2,0-3.7-1.1-4.7-2.8L21.5,380.8
			c-0.9-1.8-0.9-4,0.1-5.7l5.9-10.2c1.1-2,3.2-3.2,5.5-3.2h5.3c1.4,0,2.7,0.8,3.3,2l46.2,91.8c1,1.9,3.7,1.9,4.7,0l46.1-91.8
			c0.6-1.3,1.9-2,3.3-2h5.3c2.3,0,4.4,1.2,5.5,3.2l5.9,10.2C159.7,376.9,159.7,379,158.8,380.8"/>
	</g>
	<g>
		<path class="st0" d="M237.5,363.3c-0.9-0.9-2.3-1.5-3.7-1.5h-8.2c-2.3,0-4.4,1.2-5.5,3.2l-5.9,10.2c-0.5,0.9-0.8,1.9-0.8,3v108.4
			c0,2.9,2.4,5.3,5.3,5.3h15.2c2.9,0,5.2-2.3,5.2-5.2V367.1C239,365.6,238.4,364.3,237.5,363.3"/>
	</g>
	<g>
		<path class="st0" d="M492.2,364.9c1.1-2,3.2-3.2,5.5-3.2h78.7c2.2,0,4.3,1.2,5.4,3.1l5.5,9.5c0.8,1.4,1.2,2.9,1.2,4.5v2.4
			c0,1.9-1.6,3.6-3.6,3.6h-71.7c-1.4,0-2.6,1.2-2.6,2.6v24.9c0,1.4,1.2,2.6,2.6,2.6h48.6c2.4,0,4.3,2,4.3,4.3v14.3
			c0,2.4-1.9,4.3-4.3,4.3h-48.6c-1.4,0-2.6,1.2-2.6,2.6v25.5c0,1.5,1.2,2.6,2.6,2.6h71.7c2,0,3.6,1.6,3.6,3.5v2.4
			c0,1.6-0.4,3.1-1.2,4.5l-5.5,9.5c-1.1,1.9-3.2,3.1-5.4,3.1h-78.7c-2.3,0-4.4-1.2-5.5-3.2l-5.5-9.4c-0.8-1.4-1.2-2.9-1.2-4.5
			l0-95.7c0-1.6,0.4-3.1,1.2-4.5L492.2,364.9z"/>
	</g>
	<g>
		<path class="st0" d="M589,361.8h4.7v0.7h-1.9v4.6h-0.9v-4.6H589V361.8z M594.4,361.8h1.2l1.8,4.2h0l1.8-4.2h1.2v5.4h-0.9l0-4.2h0
			l-1.8,4.2h-0.7l-1.8-4.2h-0.1l0.1,4.2h-0.9V361.8z"/>
	</g>
</g>
</svg>
