<?xml version="1.0" encoding="utf-8"?>
<!-- Generator: Adobe Illustrator 24.1.2, SVG Export Plug-In . SVG Version: 6.00 Build 0)  -->
<svg version="1.1" xmlns="http://www.w3.org/2000/svg" xmlnsXlink="http://www.w3.org/1999/xlink" x="0px" y="0px" viewBox="0 0 188.4 47"
	 style="enable-background:new 0 0 188.4 47;" xmlSpace="preserve">
<style type="text/css">
	.st0{fill:#FFFFFF;}
</style>
<g transform="matrix(1.25 0 0 -1.25 -279.62 519.24)">
	<g transform="matrix(.25 0 0 .25 224.45 297.78)">
		<path class="st0" d="M0,437.6c0,0,14.8-60.8,17.2-70.7C20,355.4,25,351.1,39.3,354l9.3,37.7c2.3,9.4,3.9,16,5.4,25.6h0.3
			c1.1-9.6,2.6-16.2,4.5-25.6c0,0,3.8-17.1,5.7-26.1c1.9-9,7.3-14.7,21.4-11.6l22.1,83.6H90.1l-7.5-36.1c-2-10.5-3.9-18.7-5.3-28.4
			h-0.3c-1.3,9.5-2.9,17.4-5,27.7l-7.8,36.8H45.7l-8.4-35.9c-2.4-10.9-4.6-19.7-6-29H31c-1.4,8.8-3.4,19.8-5.5,30.4
			c0,0-5,25.7-6.7,34.5L0,437.6L0,437.6z M170,437.6V354h17v17.8v65.8L170,437.6L170,437.6z M409,437.6v-61.7c0-8.5,1.6-14.5,5-18.1
			c3-3.2,7.9-5.2,13.8-5.2c5,0,10,1,12.3,1.8l-0.2,13.3c-1.7-0.4-3.7-0.8-6.4-0.8c-5.8,0-7.7,3.7-7.7,11.3v23.6h14.8v16h-14.8v19.8
			L409,437.6L409,437.6z M132,418.2c-10.5,0-18.9-3-23.5-5.6l3.3-11.4c4.2,2.6,10.8,4.8,17.1,4.8c10.4,0,12.1-5.9,12.1-9.7v-0.9
			c-22.7,0-37.1-7.8-37.1-23.9c0-9.8,7.3-19,20-19c7.8,0,14.4,3.1,18.3,8.1h0.4c0,0,2.6-10.9,16.9-6.7c-0.8,4.5-1,9.3-1,15.1v22.3
			C158.6,405.7,152.6,418.2,132,418.2L132,418.2z M233.6,418.2c-10.6,0-15.4-5.4-18.3-10H215v8.5h-16.2V354h17.1v36.8
			c0,1.7,0.2,3.6,0.8,5.1c1.4,3.7,4.9,8,10.4,8c6.9,0,10.1-5.8,10.1-14.2V354h17v37.3c0,1.6,0.2,3.6,0.7,5.1
			c1.4,4.2,5.1,7.6,10.2,7.6c7,0,10.3-5.7,10.3-15.6V354h17.1v37c0,19.5-9.9,27.2-21.1,27.2c-5,0-8.9-1.2-12.4-3.4
			c-3-1.8-5.6-4.4-8-7.8h-0.3C248.2,413.7,241.8,418.2,233.6,418.2L233.6,418.2z M327.3,418.2c-10.5,0-18.9-3-23.5-5.6l3.3-11.4
			c4.2,2.6,10.8,4.8,17.1,4.8c10.4,0,12.1-5.9,12.1-9.7v-0.9c-22.7,0-37.1-7.8-37.1-23.9c0-9.8,7.3-19,20-19
			c7.8,0,14.4,3.1,18.3,8.1h0.4c0,0,2.6-10.9,16.9-6.7c-0.8,4.5-1,9.3-1,15.1v22.3C353.9,405.7,347.8,418.2,327.3,418.2L327.3,418.2
			z M398.1,418.2c-6.5,0-14-4.2-17.1-13.3h-0.5v11.8h-15.4V354h17.5v32.2c0,1.7,0.1,3.2,0.4,4.6c1.3,6.7,6.4,11,13.8,11
			c2,0,3.5-0.2,5.1-0.4v16.4C400.7,418.1,399.8,418.2,398.1,418.2L398.1,418.2z M141.7,384.3v-7.8c0-1.2-0.1-2.4-0.4-3.4
			c-1.3-4.4-5.8-8-11.5-8c-4.7,0-8.4,2.7-8.4,8.3C121.4,381.9,130.9,384.3,141.7,384.3L141.7,384.3z M336.9,384.3v-7.8
			c0-1.2-0.1-2.4-0.4-3.4c-1.3-4.4-5.8-8-11.5-8c-4.7,0-8.4,2.7-8.4,8.3C316.6,381.9,326.1,384.3,336.9,384.3L336.9,384.3z"/>
		<path class="st0" d="M532.3,467.8c-5.5,0-9.8-3.1-9.8-6.8l3.3-37.7c0.4-2.3,3.1-4,6.5-4c3.4,0,6.1,1.8,6.5,4l3.3,37.7
			C542.2,464.7,537.8,467.8,532.3,467.8L532.3,467.8z M478.1,437.6c-2.8-0.1-6.1-2.2-8.1-5.8c-2.7-4.7-2.3-10.1,1-11.9l34.3-16
			c2.1-0.8,5.1,0.7,6.7,3.6c0,0,0,0,0,0c1.7,2.9,1.6,6.2-0.2,7.7l-31,21.7C480,437.4,479.1,437.6,478.1,437.6L478.1,437.6z
			 M586.6,437.6c-0.9,0-1.9-0.2-2.7-0.7l-31-21.7c-1.8-1.5-1.9-4.7-0.2-7.7l0,0c1.7-2.9,4.6-4.4,6.7-3.6l34.3,16
			c3.2,1.9,3.7,7.2,1,11.9C592.7,435.4,589.4,437.5,586.6,437.6L586.6,437.6z M506.5,387.9c-0.4,0-0.9-0.1-1.3-0.2l-34.3-16
			c-3.2-1.9-3.7-7.2-1-11.9c2.7-4.7,7.6-7,10.8-5.1l31,21.7c1.8,1.5,1.9,4.8,0.2,7.7l0,0C510.6,386.4,508.4,387.8,506.5,387.9
			L506.5,387.9z M558.2,387.9c-1.9,0-4.1-1.5-5.5-3.8l0,0c-1.7-2.9-1.6-6.2,0.2-7.7l31-21.7c3.2-1.9,8,0.4,10.8,5.1
			c2.7,4.8,2.3,10.1-1,11.9l-34.3,16C559.1,387.8,558.6,387.9,558.2,387.9L558.2,387.9z M532.3,372.2c-3.4,0-6.1-1.7-6.5-4
			l-3.3-37.7c0-3.7,4.4-6.8,9.8-6.8c5.5,0,9.9,3.1,9.9,6.8l-3.3,37.7C538.5,370.5,535.7,372.2,532.3,372.2L532.3,372.2L532.3,372.2z
			"/>
	</g>
</g>
</svg>
