<?xml version="1.0" encoding="utf-8"?>
<!-- Generator: Adobe Illustrator 26.3.1, SVG Export Plug-In . SVG Version: 6.00 Build 0)  -->
<svg version="1.1" id="Layer_1" xmlns="http://www.w3.org/2000/svg" xmlns:xlink="http://www.w3.org/1999/xlink" x="0px" y="0px"
	 viewBox="0 0 69 21" style="enable-background:new 0 0 69 21;" xml:space="preserve">
<style type="text/css">
	.st0{fill:#FFFFFF;}
</style>
<path class="st0" d="M29.3,9.4c0.2,0.1,0.4,0.2,0.7,0.6c0.3,0.3,0.4,1.5,0.5,2.1c0,0.4,0,0.9,0,1.3v3c0,0.4,0,1,0,1.3
	c0,0.5-0.1,1.4-0.3,1.7c-0.2,0.4-0.4,0.4-0.6,0.5c-0.1,0.1-0.4,0.2-0.4,0.5c0.1,0.3,0.4,0.3,0.5,0.3h6.6c0.1,0,0.5,0,0.5-0.3
	c0.1-0.3-0.3-0.4-0.4-0.5c-0.1-0.1-0.3-0.1-0.5-0.4c-0.3-0.3-0.3-1.2-0.3-1.8c0-0.4,0-0.9,0-1.3V7.5c0-0.3-0.1-0.5-0.3-0.6
	c-0.2-0.1-0.4-0.1-0.7-0.1c0,0-1.2,0.4-2.8,0.9c-1.7,0.5-2.3,0.7-2.3,0.7c-0.8,0.2-1.1,0.3-1.1,0.5c0,0.1,0.1,0.2,0.2,0.2
	C28.9,9.2,29.2,9.3,29.3,9.4z"/>
<path class="st0" d="M52.1,7.9c-0.6-0.8-1.5-1.3-2.8-1.3c-1.2,0-2.2,0.3-3.2,1c-0.5,0.4-1.3,1.1-1.3,1.1c0,0,0,0-0.1,0
	c0,0,0,0,0-0.1V7.5c0-0.3-0.1-0.5-0.3-0.6c-0.2-0.1-0.4-0.1-0.7-0.1c0,0-1.2,0.4-2.8,0.9c-1.7,0.5-2.2,0.6-2.2,0.6
	c-0.8,0.2-1.2,0.3-1.2,0.6c0,0.1,0.1,0.2,0.2,0.2c0.1,0.1,0.5,0.2,0.6,0.2c0.2,0.1,0.4,0.2,0.7,0.6c0.3,0.3,0.4,1.5,0.5,2.1
	c0,0.4,0,0.9,0,1.3v3c0,0.4,0,1,0,1.3c0,0.5-0.1,1.4-0.3,1.7c-0.2,0.4-0.4,0.4-0.6,0.5c-0.1,0.1-0.4,0.2-0.4,0.5
	c0.1,0.3,0.4,0.3,0.5,0.3h6.6c0.1,0,0.5,0,0.5-0.3c0.1-0.3-0.3-0.4-0.4-0.5c-0.1-0.1-0.3-0.1-0.5-0.4c-0.3-0.3-0.3-1.2-0.3-1.8
	c0-0.4,0-0.9,0-1.3c0,0,0-4.2,0-5.6c0-0.6,0.2-0.9,0.4-1.1c0.2-0.2,0.6-0.5,1.2-0.5c0.5,0,0.9,0.2,1,0.4c0.3,0.4,0.3,1.5,0.3,2.4
	c0,0.4,0,0.9,0,1.3v4.7c0,0.2,0,0.6,0,1c0,0.2-0.1,0.6-0.2,0.8c-0.1,0.1-0.2,0.1-0.3,0.2c-0.3,0.1-0.4,0.3-0.3,0.5
	c0,0.2,0.2,0.3,0.5,0.3h6.2c0.1,0,0.5,0,0.5-0.3c0-0.3-0.3-0.4-0.4-0.4c-0.1,0-0.5-0.2-0.6-0.5C53,19.3,53,19,53,18.9
	c0-0.4,0-0.8,0-1c0,0,0-4.9,0-6.5C52.9,9.9,52.9,8.9,52.1,7.9z"/>
<path class="st0" d="M9,4.1c0-0.4,0.3-0.6,0.4-0.7c0.7-0.5,0.7-0.6,0.7-0.7c0-0.2-0.1-0.4-0.9-0.4H0.8C0,2.3,0,2.5,0,2.7
	c0,0.2,0.2,0.3,0.8,0.5C1.1,3.3,1.6,3.5,2,4.1c0.2,0.3,0.5,0.6,0.7,1c0.4,0.6,0.8,1.5,0.8,1.5c0.2,0.3,0.4,0.9,0.6,1.2l5.8,12.8
	c0.1,0.2,0.3,0.4,0.5,0.4h0c0.2,0,0.4-0.1,0.5-0.4c0,0,3.5-7.2,4.7-9.6c0.1-0.2,0.2-0.5,0.4-0.5c0.2,0,0.3,0.3,0.3,0.3l4.2,9.7
	c0.1,0.4,0.4,0.4,0.5,0.4c0.1,0,0.3,0,0.5-0.4c0-0.1,4.5-9.9,6.1-13.3c0.4-0.9,1.1-1.9,2.2-1.9c0.4,0,0.7,0.1,0.7,0.1
	c0.4,0.1,0.9,0.2,1.3,0.3c0,0,0.6,0.2,1.1,0.2c1.8,0,3.1-1.3,3.1-3c0-1.7-1.4-2.9-3.2-2.9c-2.8,0-4.2,3.2-5.7,6.3l-0.2,0.4
	c-0.8,1.8-2.7,5.7-2.8,6.1c-0.1,0.2-0.2,0.5-0.3,0.5c-0.1,0-0.3-0.4-0.3-0.5l-2.5-6c-0.1-0.3-0.4-0.9-0.5-1.2
	c-0.1-0.3-0.3-1-0.3-1.3c0-0.7,0.7-1,0.7-1c0.7-0.3,0.7-0.6,0.7-0.6c0-0.2-0.1-0.4-0.9-0.4h-8.3c-0.8,0-0.9,0.2-0.9,0.4
	c0,0.1,0.2,0.3,0.8,0.5c0.2,0.1,0.5,0.2,0.7,0.5c0.3,0.3,0.7,1.1,0.8,1.4c0.1,0.3,0.4,0.9,0.5,1.2l1,2.4c0.1,0.3,0.2,0.7,0,1
	c0,0-0.8,1.6-1.1,2.3c-0.2,0.4-0.7,1.4-1,1.4c-0.3,0-0.8-1.2-1.1-1.8c-0.7-1.5-1.9-4.4-2.6-5.9C9.4,5.3,9,4.5,9,4.1z"/>
<path class="st0" d="M64,9.7c-0.3-1.2,0.1-2.2-1.4-2.2c-1.4,0-2.8,1.4-3,4c-0.2,2.9,1.3,5.6,4.2,5.6c1.6,0,2.7-0.6,3.7-1.3
	c0.4-0.3,0.7-0.4,0.9-0.3c0.3,0.2,0.1,0.8,0,1c0,0-0.2,0.5-0.6,1c-0.4,0.6-0.8,1.2-1.3,1.7c-1.3,1.2-2.9,1.9-4.7,1.9c-4,0-7-2.9-7-7
	c0-4.2,3.1-7.5,7.6-7.4c1.1,0,2.2,0.2,3,0.4c1,0.4,2.4,1.1,2.4,2.4c0,0.8-0.5,1.8-1.8,1.8C65,11.3,64.2,10.6,64,9.7z"/>
</svg>
