<?xml version="1.0" encoding="utf-8"?>
<!-- Generator: Adobe Illustrator 27.2.0, SVG Export Plug-In . SVG Version: 6.00 Build 0)  -->
<svg version="1.1" id="Layer_1" xmlns="http://www.w3.org/2000/svg" xmlns:xlink="http://www.w3.org/1999/xlink" x="0px" y="0px"
	 viewBox="0 0 113.6 16.5" style="enable-background:new 0 0 113.6 16.5;" xml:space="preserve">
<style type="text/css">
	.st0{fill:#FFFFFF;}
	.st1{fill:#E0E621;}
	.st2{fill:#91C64F;}
	.st3{fill:#BAD232;}
	.st4{fill:#5AB772;}
	.st5{fill:#19D3C5;}
	.st6{fill:#36B0C9;}
	.st7{fill:#238DC1;}
	.st8{fill:#2174AE;}
</style>
<g>
	<polygon class="st0" points="34.6,16.1 42,0.3 43.9,4.3 38.3,16.1 	"/>
	<polygon class="st1" points="51.3,12.2 53.1,16.1 49.4,16.1 	"/>
	<polygon class="st2" points="49.4,8.2 51.3,12.2 47.6,12.2 	"/>
	<polygon class="st3" points="49.4,16.1 51.3,12.2 47.6,12.2 	"/>
	<polygon class="st4" points="47.6,12.2 49.4,8.2 45.7,8.2 	"/>
	<polygon class="st5" points="47.6,4.3 49.4,8.2 45.7,8.2 	"/>
	<polygon class="st6" points="45.7,8.2 47.6,4.3 43.9,4.3 	"/>
	<polygon class="st7" points="45.7,0.3 47.6,4.3 43.9,4.3 	"/>
	<polygon class="st8" points="43.9,4.3 45.7,0.3 42,0.3 	"/>
	<rect y="0.3" class="st0" width="3.1" height="15.8"/>
	<polygon class="st0" points="28.4,16.1 25.3,16.1 25.3,5.9 20.8,13.2 20.5,13.2 16,5.9 16,16.1 12.9,16.1 12.9,0.3 16.1,0.3 
		20.6,7.8 25.2,0.3 28.4,0.3 	"/>
	<path class="st0" d="M73.9,8.9c0,4.6-3.2,7.6-7.8,7.6c-5,0-8.5-3.7-8.5-8.2c0-4.6,3.6-8.3,8.3-8.3c1.3,0,2.4,0.3,3.5,0.7
		c0.8,0.4,1.6,0.9,2.2,1.4c0.5,0.5,0.9,1,1.2,1.5l-2.7,1.5c-0.4-0.7-1.1-1.4-2-1.8c-0.7-0.3-1.4-0.4-2.2-0.4c-3,0-5.2,2.2-5.2,5.2
		c0,2.9,2.1,5.2,5.4,5.2c2.5,0,4.1-1.2,4.6-3h-4.1l-1.3-2.8h8.5v1.4H73.9z"/>
	<polygon class="st0" points="92.3,13.2 92.3,16.1 82.5,16.1 82.5,0.3 92.2,0.3 92.2,3.3 85.6,3.3 85.6,6.7 91.6,6.7 91.6,9.6 
		85.6,9.6 85.6,13.2 	"/>
	<polygon class="st0" points="113.6,0.3 113.6,16.1 111.2,16.1 104.4,6.5 104.4,16.1 101.3,16.1 101.3,0.3 103.6,0.3 110.4,10 
		110.4,0.3 	"/>
</g>
</svg>
