<?xml version="1.0" encoding="UTF-8"?>
<svg xmlns="http://www.w3.org/2000/svg" version="1.1" viewBox="0 0 2834.6 2834.6">
  <path fill="#FFFFFF" d="M1417.3,0C634.55,0,0,634.55,0,1417.3s634.55,1417.3,1417.3,1417.3,1417.3-634.55,1417.3-1417.3S2200.05,0,1417.3,0ZM2192.59,1343.2c-58.59,210.1-272.15,263.69-462.12,231.26,332.05,56.69,416.51,244.47,234.09,432.26-346.45,356.66-497.95-89.48-536.74-203.79-7.18-21.11-10.52-30.91-10.52-22.24,0-8.67-3.33,1.13-10.52,22.24-38.79,114.31-190.3,560.44-536.74,203.79-182.42-187.78-97.97-375.56,234.09-432.26-189.96,32.43-403.52-21.16-462.12-231.26-16.88-60.44-45.61-432.72-45.61-483,0-251.86,220.08-172.7,355.89-70.42,188.22,141.79,390.7,429.23,465.02,583.48,74.32-154.25,276.8-441.7,465.02-583.48,135.83-102.28,355.89-181.44,355.89,70.42,0,50.28-28.73,422.56-45.61,483Z"/>
</svg>