<?xml version="1.0" encoding="UTF-8"?>
<svg xmlns="http://www.w3.org/2000/svg" version="1.1" viewBox="0 0 2834.6 2834.6" fill="#FFFFFF">
  <path d="M1379.41,2834.1c12.59.33,25.22.5,37.89.5s25.3-.17,37.89-.5h-75.77Z"/>
  <path d="M1417.3,0C634.55,0,0,634.55,0,1417.3c0,644.36,430,1188.28,1018.7,1360.47.92-4.85,1.41-9.86,1.41-14.99,0-12.06-.21-34.14-.48-62.11-.52-54.63-1.24-129.45-1.24-208.89v-.6l-.59.11c-158.77,29.23-283.41,19.31-370.45-29.49-56.37-31.61-96.14-79.07-118.22-141.08-8.67-22.17-31.23-65.57-57.56-105.64-23.18-35.25-57.9-81.25-91.73-100.15-17.58-9.46-35.56-22.42-48.1-34.68-10.68-10.45-22.77-25.56-19.7-38.18,3.51-14.4,25.63-22.01,65.72-22.62,49.39-.84,97.93,18.5,144.23,57.37,41.56,34.88,69.09,75.67,78.99,91.58,56.78,95.39,134.16,148.22,229.97,157.03,9.63.89,19.16,1.29,28.54,1.29,70.76,0,132.96-23.14,165.88-38.17l.25-.11.04-.27c11.15-83.03,44.01-152.01,92.55-194.25l.85-.74-1.13-.13c-202.83-22.79-346.5-74.91-452.12-164.04-66.03-55.71-117.01-127.09-151.52-212.15-38.4-94.62-57.87-209.6-57.87-341.74,0-76.65,13.37-149.47,39.74-216.43,24.98-63.42,61.76-122.03,109.32-174.2l.21-.23-.12-.29c-16.44-40.74-63.99-188.87,14.46-384.93,2.91-.81,33.81-8.66,95.33,4.46,59.44,12.68,160.43,48.08,303.97,144.73l.19.12.22-.06c118.39-32.84,240.72-49.39,363.58-49.05,125.89,0,248.22,16.51,363.58,49.05l.22.06.2-.13c63.41-43.09,123.88-77.75,179.73-103.01,44.67-20.2,86.51-34.47,124.35-42.4,61.56-12.91,92.47-4.62,95.34-3.78,33.95,84.99,48.31,170.35,42.68,253.73-4.31,63.85-19.45,109.62-28.09,131.21l-.11.29.21.23c98.82,108.55,148.92,239.98,148.92,390.63,0,132.54-19.56,247.78-58.15,342.52-34.66,85.1-85.85,156.45-152.16,212.07-105.59,88.58-249.55,140.48-453.05,163.34l-1.14.13.87.75c28.41,24.49,52.2,59.18,68.79,100.3,19.44,48.22,29.3,104.9,29.3,168.46,0,129.51-.82,242.61-1.36,317.45-.28,38.45-.49,66.23-.49,82.64,0,11.69,2.4,22.79,6.86,32.59,622.32-149.62,1084.78-709.84,1084.78-1378.07C2834.6,634.55,2200.05,0,1417.3,0Z"/>
</svg>