<?xml version="1.0" encoding="utf-8"?>
<!-- Generator: Adobe Illustrator 24.1.2, SVG Export Plug-In . SVG Version: 6.00 Build 0)  -->
<svg version="1.1" id="Layer_1" xmlns="http://www.w3.org/2000/svg" xmlnsXlink="http://www.w3.org/1999/xlink" x="0px" y="0px"
	 viewBox="0 0 2834.6 2834.6" style="enable-background:new 0 0 2834.6 2834.6;" xmlSpace="preserve">
<style type="text/css">
	.st0{fill:#FFFFFF;}
</style>
<g>
	<polygon class="st0" points="1948.8,885.8 1919.3,885.8 1712.6,885.8 1712.6,1122 1948.8,1122 	"/>
	<path class="st0" d="M1417.3,1659.5c129.9,0,242.1-106.3,242.1-242.1c0-53.1-17.7-100.4-47.2-141.7
		c-41.3-59.1-118.1-100.4-194.9-100.4s-153.5,41.3-194.9,100.4c-29.5,41.3-47.2,88.6-47.2,141.7
		C1175.2,1553.2,1287.4,1659.5,1417.3,1659.5z"/>
	<path class="st0" d="M1417.3,0C634.6,0,0,634.6,0,1417.3s634.6,1417.3,1417.3,1417.3s1417.3-634.6,1417.3-1417.3S2200.1,0,1417.3,0
		z M2108.3,1842.5c0,147.6-118.1,265.7-265.7,265.7H992.1c-147.6,0-265.7-118.1-265.7-265.7V992.1c0-147.6,118.1-265.7,265.7-265.7
		h850.4c147.6,0,265.7,118.1,265.7,265.7V1842.5z"/>
	<path class="st0" d="M1765.8,1275.6c17.7,41.3,29.5,94.5,29.5,141.7c0,206.7-171.3,378-378,378s-378-171.3-378-378
		c0-47.2,11.8-100.4,29.5-141.7H862.2v566.9c0,70.9,59.1,129.9,129.9,129.9h850.4c70.9,0,129.9-59.1,129.9-129.9l0-566.9H1765.8z"/>
</g>
</svg>
