<svg enable-background="new 0 0 2834.6 2834.6" viewBox="0 0 2834.6 2834.6" xmlns="http://www.w3.org/2000/svg"><g fill="#fff"><path d="m1948.8 885.8h-29.5-206.7v236.2h236.2z"/><path d="m1417.3 1659.5c129.9 0 242.1-106.3 242.1-242.1 0-53.1-17.7-100.4-47.2-141.7-41.3-59.1-118.1-100.4-194.9-100.4s-153.5 41.3-194.9 100.4c-29.5 41.3-47.2 88.6-47.2 141.7 0 135.8 112.2 242.1 242.1 242.1z"/><path d="m1417.3 0c-782.7 0-1417.3 634.6-1417.3 1417.3s634.6 1417.3 1417.3 1417.3 1417.3-634.6 1417.3-1417.3-634.5-1417.3-1417.3-1417.3zm691 1842.5c0 147.6-118.1 265.7-265.7 265.7h-850.5c-147.6 0-265.7-118.1-265.7-265.7v-850.4c0-147.6 118.1-265.7 265.7-265.7h850.4c147.6 0 265.7 118.1 265.7 265.7v850.4z"/><path d="m1765.8 1275.6c17.7 41.3 29.5 94.5 29.5 141.7 0 206.7-171.3 378-378 378s-378-171.3-378-378c0-47.2 11.8-100.4 29.5-141.7h-206.6v566.9c0 70.9 59.1 129.9 129.9 129.9h850.4c70.9 0 129.9-59.1 129.9-129.9v-566.9z"/></g></svg>